<svg width="92" height="74" viewBox="0 0 92 74" fill="none" xmlns="http://www.w3.org/2000/svg">
<path d="M9.51214 16.1077C22.0669 14.35 35.1625 15.2107 47.8128 15.2107C54.8612 15.2107 81.111 15.1035 83.2431 22.5659C85.545 30.6226 84.6284 39.9951 86.5619 48.3089C87.8883 54.0127 91.999 70.1053 82.5255 70.1053C57.0367 70.1053 32.6768 75.5097 9.06365 62.3913C3.73519 59.4311 2.60547 45.364 2.60547 39.4289C2.60547 34.2209 2.85526 27.1649 5.02729 22.3865C6.3144 19.5548 5.7734 16.6311 9.51214 16.1077Z" fill="#013019" stroke="white" stroke-width="5" stroke-linecap="round"/>
<path d="M9.51214 4.16725C22.0669 2.40959 35.1625 3.27028 47.8128 3.27028C54.8612 3.27028 81.111 3.16311 83.2431 10.6254C85.545 18.6821 84.6284 28.0546 86.5619 36.3685C87.8883 42.0722 91.999 58.1649 82.5255 58.1649C57.0367 58.1649 32.6768 63.5693 9.06365 50.4509C3.73519 47.4907 2.60547 33.4236 2.60547 27.4885C2.60547 22.2805 2.85526 15.2245 5.02729 10.446C6.3144 7.6144 5.7734 4.69067 9.51214 4.16725Z" fill="#028545" stroke="white" stroke-width="5" stroke-linecap="round"/>
<g clip-path="url(#clip0_305_1630)">
<path fill-rule="evenodd" clip-rule="evenodd" d="M58.3119 19.0141C58.7032 18.8494 59.1314 18.7926 59.5521 18.8496C59.9728 18.9066 60.3705 19.0753 60.7038 19.3382C61.0372 19.6011 61.294 19.9485 61.4475 20.3442C61.601 20.74 61.6456 21.1697 61.5767 21.5886L57.9857 43.3705C57.6374 45.4716 55.3321 46.6765 53.4051 45.6299C51.7933 44.7544 49.3993 43.4054 47.246 41.9978C46.1693 41.2932 42.8712 39.0369 43.2766 37.4314C43.6249 36.0587 49.1666 30.9002 52.3332 27.8333C53.5761 26.6284 53.0093 25.9333 51.5416 27.0416C47.8967 29.7934 42.0447 33.9782 40.1099 35.1562C38.4031 36.1949 37.5132 36.3722 36.4492 36.1949C34.5081 35.8719 32.7078 35.3715 31.2385 34.7619C29.253 33.9386 29.3496 31.2089 31.2369 30.4141L58.3119 19.0141Z" fill="black"/>
</g>
<defs>
<clipPath id="clip0_305_1630">
<rect width="38" height="38" fill="white" transform="translate(27 12)"/>
</clipPath>
</defs>
</svg>
