<svg width="196" height="119" viewBox="0 0 196 119" fill="none" xmlns="http://www.w3.org/2000/svg">
<rect x="3.5" y="3.5" width="189" height="112" fill="white" stroke="black" stroke-width="7"/>
<path d="M72.04 60.72C72.1467 60.9333 72.3333 61.2 72.6 61.52C73.4533 62.5867 74.2533 63.6533 75 64.72C75.8 65.7333 76.4667 66.8267 77 68C77.5867 69.12 77.9867 70.3733 78.2 71.76C78.4133 73.1467 78.36 74.6933 78.04 76.4C77.6133 78.9067 76.7867 80.96 75.56 82.56C74.3867 84.1067 72.9467 85.3067 71.24 86.16C69.5333 87.0133 67.64 87.6 65.56 87.92C63.48 88.1867 61.32 88.32 59.08 88.32C56.8933 88.3733 54.68 88.32 52.44 88.16C50.2533 88 48.2 87.8933 46.28 87.84C45.96 87.84 45.64 87.84 45.32 87.84C45.0533 87.84 44.7867 87.7867 44.52 87.68C44.2 78.4533 44.12 69.3067 44.28 60.24C44.44 51.12 44.44 41.92 44.28 32.64L44.36 32.56C46.4933 31.9733 48.76 31.52 51.16 31.2C53.56 30.88 55.9333 30.7733 58.28 30.88C60.6267 30.9867 62.8667 31.3333 65 31.92C67.1867 32.5067 69.1067 33.4667 70.76 34.8C72.4133 36.08 73.72 37.76 74.68 39.84C75.64 41.8667 76.12 44.3733 76.12 47.36C76.12 49.6 75.72 51.7867 74.92 53.92C74.1733 56.0533 73.2667 58.0267 72.2 59.84C71.9867 60.2133 71.9333 60.5067 72.04 60.72ZM63.16 76.24C63.9067 75.92 64.5467 75.44 65.08 74.8C65.6667 74 65.9333 73.04 65.88 71.92C65.88 70.8 65.6933 69.7867 65.32 68.88C65 68.24 64.52 67.68 63.88 67.2C63.24 66.6667 62.5733 66.32 61.88 66.16C60.8667 65.8933 59.8267 65.76 58.76 65.76C57.6933 65.7067 56.6533 65.6267 55.64 65.52C55.4267 66.32 55.24 67.2267 55.08 68.24C54.92 69.2533 54.8133 70.2933 54.76 71.36C54.76 72.3733 54.84 73.36 55 74.32C55.16 75.28 55.4533 76.08 55.88 76.72L56.04 76.8C56.7867 76.8 57.56 76.8267 58.36 76.88C59.2133 76.88 60.04 76.8533 60.84 76.8C61.6933 76.6933 62.4667 76.5067 63.16 76.24ZM63.24 53.84C63.9867 53.4133 64.5733 52.8 65 52C65.3733 51.36 65.6933 50.6133 65.96 49.76C66.2267 48.9067 66.1467 48.0533 65.72 47.2C65.2933 46.3467 64.7333 45.7067 64.04 45.28C63.4 44.8 62.6533 44.4533 61.8 44.24C60.7333 44.0267 59.5867 43.92 58.36 43.92C57.1867 43.8667 56.2 44.0533 55.4 44.48C55.5067 45.7067 55.4533 47.2 55.24 48.96C55.08 50.72 55.24 52.5333 55.72 54.4C56.52 54.5067 57.3733 54.5867 58.28 54.64C59.1867 54.6933 60.0667 54.6667 60.92 54.56C61.7733 54.4533 62.5467 54.2133 63.24 53.84ZM114.165 33.76C115.178 33.8667 116.005 34.1067 116.645 34.48C116.965 41.3067 117.072 48.2133 116.965 55.2C116.858 62.1333 116.432 69.04 115.685 75.92C115.258 79.44 113.925 82.4267 111.685 84.88C109.445 87.3333 106.405 88.7467 102.565 89.12C100.325 89.3333 98.005 89.2267 95.605 88.8C93.205 88.4267 91.0183 87.7333 89.045 86.72C87.125 85.6533 85.4983 84.2667 84.165 82.56C82.885 80.8 82.1917 78.6933 82.085 76.24C82.085 69.2 82.165 62.1067 82.325 54.96C82.485 47.8133 82.5117 40.72 82.405 33.68L82.325 33.6H82.405C83.205 33.6 84.085 33.5733 85.045 33.52C86.0583 33.4667 87.0717 33.44 88.085 33.44C89.0983 33.44 90.085 33.4933 91.045 33.6C92.005 33.6533 92.885 33.7867 93.685 34V34.08C93.0983 46.9867 93.3383 60.08 94.405 73.36C94.7783 74.64 95.445 75.5733 96.405 76.16C97.4183 76.7467 98.4583 77.0133 99.525 76.96C100.592 76.9067 101.578 76.5333 102.485 75.84C103.392 75.1467 103.978 74.1867 104.245 72.96C104.512 66.56 104.645 60.0533 104.645 53.44C104.698 46.8267 104.805 40.4267 104.965 34.24C105.658 34.1867 106.538 34.1067 107.605 34C108.725 33.84 109.845 33.7333 110.965 33.68C112.085 33.6267 113.152 33.6533 114.165 33.76ZM154.236 32.48C154.769 32.48 155.196 32.5067 155.516 32.56V32.64C154.022 37.44 152.262 42.1333 150.236 46.72C148.209 51.3067 146.102 55.8933 143.916 60.48C141.729 65.0133 139.596 69.5733 137.516 74.16C135.436 78.6933 133.596 83.3067 131.996 88C131.676 87.9467 131.356 87.92 131.036 87.92C130.716 87.92 130.369 87.92 129.996 87.92C128.876 87.92 127.649 87.9467 126.316 88C124.982 88.1067 123.702 88.16 122.476 88.16C122.156 88.16 121.836 88.16 121.516 88.16C121.196 88.16 120.876 88.1333 120.556 88.08H120.396C121.782 83.76 123.409 79.2533 125.276 74.56C127.142 69.8133 129.009 65.0933 130.876 60.4V60.24C130.289 57.8933 129.542 55.5733 128.636 53.28C127.729 50.9333 126.769 48.6133 125.756 46.32C124.796 44.0267 123.862 41.7333 122.956 39.44C122.049 37.1467 121.329 34.88 120.796 32.64C121.862 32.64 122.982 32.56 124.156 32.4C125.329 32.24 126.502 32.16 127.676 32.16C128.316 32.16 128.956 32.2133 129.596 32.32C130.236 32.3733 130.849 32.5333 131.436 32.8C131.702 33.9733 132.076 35.36 132.556 36.96C133.089 38.56 133.622 40.1867 134.156 41.84C134.742 43.4933 135.329 45.0667 135.916 46.56C136.556 48.0533 137.116 49.3067 137.596 50.32C138.129 49.36 138.662 48.1333 139.196 46.64C139.782 45.0933 140.342 43.4933 140.876 41.84C141.462 40.1867 142.022 38.56 142.556 36.96C143.089 35.36 143.596 34.0267 144.076 32.96C145.036 32.7467 146.316 32.6133 147.916 32.56C149.569 32.4533 151.089 32.4 152.476 32.4C153.116 32.4 153.702 32.4267 154.236 32.48Z" fill="black"/>
</svg>
