<svg width="281" height="119" viewBox="0 0 281 119" fill="none" xmlns="http://www.w3.org/2000/svg">
<rect x="3.5" y="3.5" width="274" height="112" fill="white" stroke="black" stroke-width="7"/>
<path d="M62.2 43.76C61.4533 43.92 60.8667 44.2133 60.44 44.64C60.3333 44.7467 60.2267 44.9333 60.12 45.2C60.0667 45.4133 60.0133 45.5733 59.96 45.68C59.8533 45.84 59.7467 46.7733 59.64 48.48C59.5867 50.1867 59.5333 52.2133 59.48 54.56C59.4267 56.9067 59.4 59.36 59.4 61.92C59.4 64.4267 59.48 66.6133 59.64 68.48C59.8 70.0267 60.2 71.5467 60.84 73.04C61.5333 74.48 62.6533 75.4133 64.2 75.84C65.3733 75.9467 66.4667 75.7867 67.48 75.36C68.5467 74.88 69.3467 74.1067 69.88 73.04C70.4667 71.8133 70.7067 70.5333 70.6 69.2C70.5467 67.8133 70.6533 66.4533 70.92 65.12C71.6667 65.2267 72.4933 65.2533 73.4 65.2C74.36 65.1467 75.32 65.12 76.28 65.12C77.24 65.12 78.1733 65.1467 79.08 65.2C80.04 65.2533 80.8933 65.3867 81.64 65.6C82.5467 68.3733 82.7867 71.1467 82.36 73.92C81.9333 76.64 81 79.0933 79.56 81.28C78.12 83.4667 76.2267 85.28 73.88 86.72C71.5867 88.1067 68.9733 88.8267 66.04 88.88C64.12 89.1467 62.1467 89.1467 60.12 88.88C58.0933 88.6667 56.2 88.16 54.44 87.36C52.68 86.5067 51.1867 85.3333 49.96 83.84C48.7867 82.3467 48.0933 80.48 47.88 78.24C47.7733 76.32 47.6933 74.32 47.64 72.24C47.5867 70.16 47.5333 67.84 47.48 65.28C47.48 62.6667 47.48 59.7333 47.48 56.48C47.5333 53.1733 47.5867 49.36 47.64 45.04C47.5333 44.1333 47.56 43.2267 47.72 42.32C47.9333 41.36 48.2 40.48 48.52 39.68C49 38.2933 49.5867 37.0133 50.28 35.84C51.0267 34.6667 51.9067 33.6267 52.92 32.72C53.5067 32.2933 54.1467 31.9467 54.84 31.68C55.5333 31.36 56.2533 31.0933 57 30.88C59.4533 30.08 61.88 29.76 64.28 29.92C66.68 30.08 68.92 30.64 71 31.6C73.1333 32.5067 75.0533 33.7333 76.76 35.28C78.4667 36.8267 79.8267 38.6133 80.84 40.64C81.8533 42.6133 82.4667 44.7733 82.68 47.12C82.8933 49.4667 82.5733 51.8667 81.72 54.32C79.7467 54.7467 77.8 54.9067 75.88 54.8C74.0133 54.64 72.0667 54.3733 70.04 54C69.88 52.9867 69.7733 51.84 69.72 50.56C69.72 49.28 69.5867 48.1067 69.32 47.04C69.0533 45.92 68.5467 45.0133 67.8 44.32C67.1067 43.6267 65.9867 43.3067 64.44 43.36C63.7467 43.4667 63 43.6 62.2 43.76ZM116.703 31.44C117.716 31.44 118.623 31.4667 119.423 31.52L121.583 87.52C120.676 87.68 119.689 87.7867 118.623 87.84C117.609 87.8933 116.596 87.92 115.583 87.92C114.623 87.92 113.663 87.92 112.703 87.92C111.796 87.92 111.023 87.9467 110.383 88H110.303C110.036 86.24 109.849 84.4267 109.743 82.56C109.689 80.64 109.636 78.7467 109.583 76.88C109.583 75.0133 109.556 73.1467 109.503 71.28C109.449 69.4133 109.316 67.6267 109.103 65.92L109.023 65.84C107.476 65.5733 105.929 65.44 104.383 65.44C102.836 65.44 101.289 65.6267 99.7425 66C99.5825 67.8667 99.5025 69.7067 99.5025 71.52C99.5558 73.3333 99.6092 75.1467 99.6625 76.96C99.7158 78.7733 99.7158 80.56 99.6625 82.32C99.6625 84.0267 99.5292 85.7333 99.2625 87.44C98.6225 87.8133 97.7692 88 96.7025 88C95.6358 88 94.5692 87.9467 93.5025 87.84C92.4358 87.7333 91.4225 87.6533 90.4625 87.6C89.5558 87.5467 88.8625 87.6533 88.3825 87.92C88.2758 86.4267 88.1425 84.4 87.9825 81.84C87.8758 79.2267 87.7692 76.32 87.6625 73.12C87.5558 69.8667 87.4492 66.4267 87.3425 62.8C87.2892 59.1733 87.2358 55.5467 87.1825 51.92C87.1292 48.24 87.1025 44.72 87.1025 41.36C87.1558 37.9467 87.2092 34.88 87.2625 32.16V32.08H87.3425H87.5025C88.3025 32.24 89.1292 32.2933 89.9825 32.24C90.8892 32.1867 91.7692 32.1333 92.6225 32.08C93.5292 32.0267 94.4092 32 95.2625 32C96.1158 32 96.9158 32.1067 97.6625 32.32C98.1425 36 98.3825 39.5733 98.3825 43.04C98.3825 46.5067 98.7025 49.9467 99.3425 53.36H99.4225C100.756 53.68 102.196 53.7867 103.743 53.68C105.289 53.52 106.729 53.3867 108.063 53.28H108.143C108.463 49.6 108.623 46.16 108.623 42.96C108.676 39.76 108.623 36.24 108.463 32.4C109.103 32.1867 109.876 32 110.783 31.84C111.743 31.68 112.729 31.5733 113.743 31.52C114.756 31.4133 115.743 31.3867 116.703 31.44ZM152.064 56.24C152.438 57.7867 152.731 59.0133 152.944 59.92L158.944 87.92V88C157.344 88.32 155.584 88.4267 153.664 88.32C151.744 88.2667 149.931 88.0533 148.224 87.68H148.144C147.824 86.8267 147.504 85.8133 147.184 84.64C146.918 83.4667 146.624 82.2667 146.304 81.04C146.038 79.8133 145.744 78.64 145.424 77.52C145.104 76.4 144.758 75.44 144.384 74.64C143.691 74.5333 143.158 74.48 142.784 74.48C142.411 74.48 142.064 74.48 141.744 74.48C141.478 74.48 141.158 74.5067 140.784 74.56C140.464 74.56 140.011 74.56 139.424 74.56C139.051 75.4133 138.731 76.4267 138.464 77.6C138.251 78.72 138.011 79.92 137.744 81.2C137.531 82.4267 137.291 83.6267 137.024 84.8C136.758 85.9733 136.384 87.0133 135.904 87.92C135.851 87.92 135.798 87.9467 135.744 88C135.744 88 135.718 88 135.664 88C135.238 88.1067 134.171 88.1067 132.464 88C130.758 87.8933 128.091 87.8667 124.464 87.92C124.411 87.92 124.358 87.8933 124.304 87.84C124.411 87.4667 124.598 86.4267 124.864 84.72C125.131 83.0133 125.504 80.8 125.984 78.08C126.464 75.36 127.024 72.24 127.664 68.72C128.358 65.1467 129.158 61.36 130.064 57.36C130.971 53.36 131.958 49.2 133.024 44.88C134.091 40.56 135.264 36.2667 136.544 32C136.918 31.9467 137.318 31.92 137.744 31.92C138.171 31.92 138.731 31.92 139.424 31.92C140.118 31.92 140.998 31.92 142.064 31.92C143.184 31.8667 144.624 31.76 146.384 31.6C146.544 32.2933 146.784 33.36 147.104 34.8C147.478 36.1867 147.851 37.7867 148.224 39.6C148.651 41.36 149.078 43.2533 149.504 45.28C149.984 47.3067 150.438 49.2533 150.864 51.12C151.291 52.9867 151.691 54.6933 152.064 56.24ZM141.744 65.2C142.758 65.1467 143.771 65.12 144.784 65.12C144.251 60.5333 143.771 56.96 143.344 54.4C142.971 51.84 142.624 50.1067 142.304 49.2C142.038 48.2933 141.744 48.1067 141.424 48.64C141.158 49.12 140.891 50.1333 140.624 51.68C140.411 53.2267 140.144 55.1733 139.824 57.52C139.558 59.8667 139.238 62.4 138.864 65.12C139.771 65.1733 140.731 65.2 141.744 65.2ZM196.992 81.44C198.165 83.4667 199.152 85.5733 199.952 87.76H200.032C198.165 87.76 196.085 87.84 193.792 88C191.499 88.1067 189.152 88.08 186.752 87.92H186.672C186.139 86.6933 185.472 85.2267 184.672 83.52C183.872 81.8133 182.992 80.0267 182.032 78.16C181.072 76.2933 180.032 74.4533 178.912 72.64C177.792 70.8267 176.672 69.2267 175.552 67.84L175.392 67.6C175.232 68.8267 175.152 70.3467 175.152 72.16C175.152 73.92 175.179 75.76 175.232 77.68C175.339 79.5467 175.445 81.3333 175.552 83.04C175.659 84.7467 175.739 86.1067 175.792 87.12C174.885 87.4933 173.685 87.7333 172.192 87.84C170.752 87.9467 169.312 88 167.872 88C166.432 88.0533 165.125 88.0533 163.952 88C162.832 87.9467 162.139 87.9467 161.872 88C161.979 88 162.059 87.28 162.112 85.84C162.165 84.3467 162.192 82.4 162.192 80C162.192 77.6 162.192 74.8533 162.192 71.76C162.192 68.6133 162.165 65.3867 162.112 62.08C162.112 58.72 162.059 55.4133 161.952 52.16C161.899 48.8533 161.845 45.84 161.792 43.12C161.739 40.3467 161.659 38 161.552 36.08C161.499 34.1067 161.419 32.7733 161.312 32.08C164.299 31.6533 167.579 31.2533 171.152 30.88C174.725 30.5067 178.459 30.5333 182.352 30.96C185.499 31.12 188.325 32.0267 190.832 33.68C193.339 35.3333 195.285 37.3867 196.672 39.84C198.059 42.2933 198.779 45.0133 198.832 48C198.939 50.9333 198.165 53.7867 196.512 56.56C195.499 58.48 194.139 60.08 192.432 61.36C190.779 62.64 188.672 63.36 186.112 63.52H185.792H185.712V63.6C186.832 65.5733 188.059 67.5467 189.392 69.52C190.725 71.44 192.032 73.3867 193.312 75.36C194.592 77.3333 195.819 79.36 196.992 81.44ZM178.512 42.08C176.699 42.1333 174.859 42.5333 172.992 43.28C173.045 43.9733 173.072 44.7733 173.072 45.68C173.125 46.5333 173.152 47.4133 173.152 48.32C173.152 49.2267 173.152 50.1067 173.152 50.96C173.205 51.8133 173.285 52.5333 173.392 53.12H173.472C174.699 53.2267 176.032 53.3067 177.472 53.36C178.912 53.4133 180.272 53.3333 181.552 53.12C182.565 52.9067 183.339 52.4 183.872 51.6C184.459 50.7467 184.805 49.84 184.912 48.88C185.019 47.8667 184.912 46.88 184.592 45.92C184.272 44.9067 183.739 44.1067 182.992 43.52C181.819 42.4533 180.325 41.9733 178.512 42.08ZM217.678 31.6C223.491 31.5467 229.145 31.8133 234.638 32.4C234.745 34.16 234.771 36.1867 234.718 38.48C234.718 40.7733 234.585 42.88 234.318 44.8C233.305 44.5867 232.051 44.5067 230.558 44.56C229.065 44.6133 227.065 44.6933 224.558 44.8H224.398H224.318C224.318 44.8533 224.291 44.9067 224.238 44.96C224.238 44.96 224.238 44.9867 224.238 45.04C224.185 45.3067 224.131 45.7333 224.078 46.32C224.078 46.8533 224.078 47.7333 224.078 48.96C224.078 50.1333 224.078 51.7067 224.078 53.68C224.131 55.6 224.185 58.1067 224.238 61.2C224.291 64.24 224.345 67.92 224.398 72.24C224.451 76.5067 224.531 81.5467 224.638 87.36V87.44V87.52C223.678 87.68 222.611 87.7867 221.438 87.84C220.318 87.84 219.171 87.84 217.998 87.84C216.878 87.84 215.758 87.84 214.638 87.84C213.518 87.84 212.478 87.92 211.518 88.08C211.465 87.8667 211.465 86.9067 211.518 85.2C211.571 83.4933 211.598 80.96 211.598 77.6C211.651 74.1867 211.625 69.84 211.518 64.56C211.465 59.28 211.278 52.9067 210.958 45.44L210.878 45.36C210.238 45.04 209.438 44.8533 208.478 44.8C207.518 44.6933 206.558 44.64 205.598 44.64C204.638 44.5867 203.758 44.56 202.958 44.56C202.158 44.56 201.598 44.5067 201.278 44.4C201.171 44.1867 201.065 43.6533 200.958 42.8C200.905 41.9467 200.851 40.9333 200.798 39.76C200.798 38.5333 200.798 37.2267 200.798 35.84C200.798 34.4533 200.851 33.12 200.958 31.84C200.958 31.7867 200.931 31.76 200.878 31.76C200.878 31.76 200.878 31.7333 200.878 31.68C206.318 31.6267 211.918 31.6 217.678 31.6Z" fill="black"/>
</svg>
