<svg width="92" height="74" viewBox="0 0 92 74" fill="none" xmlns="http://www.w3.org/2000/svg">
<path d="M9.90667 16.0481C22.4614 14.2904 35.5571 15.1511 48.2073 15.1511C55.2558 15.1511 81.5055 15.044 83.6376 22.5063C85.9395 30.563 85.023 39.9355 86.9564 48.2493C88.2829 53.9531 92.3935 70.0457 82.92 70.0457C57.4312 70.0457 33.0713 75.4502 9.45818 62.3318C4.12972 59.3715 3 45.3044 3 39.3693C3 34.1613 3.24979 27.1054 5.42182 22.3269C6.70893 19.4953 6.16793 16.5715 9.90667 16.0481Z" fill="#013019" stroke="white" stroke-width="5" stroke-linecap="round"/>
<path d="M9.90667 4.10768C22.4614 2.35002 35.5571 3.21071 48.2073 3.21071C55.2558 3.21071 81.5055 3.10354 83.6376 10.5659C85.9395 18.6226 85.023 27.9951 86.9564 36.3089C88.2829 42.0127 92.3935 58.1053 82.92 58.1053C57.4312 58.1053 33.0713 63.5097 9.45818 50.3913C4.12972 47.4311 3 33.364 3 27.4289C3 22.2209 3.24979 15.1649 5.42182 10.3865C6.70893 7.55482 6.16793 4.6311 9.90667 4.10768Z" fill="#028545" stroke="white" stroke-width="5" stroke-linecap="round"/>
<g clip-path="url(#clip0_305_1631)">
<g clip-path="url(#clip1_305_1631)">
<path d="M54.0278 16.9404H58.3211L48.8944 27.5493L59.9078 41.9404H51.2651L44.4984 33.195L36.7518 41.9404H32.4584L42.4451 30.5936L31.8984 16.9404H40.7558L46.8691 24.9294L54.0278 16.9404ZM52.5251 39.4497H54.9051L39.5051 19.339H36.9478L52.5251 39.4497Z" fill="black"/>
</g>
</g>
<defs>
<clipPath id="clip0_305_1631">
<rect width="38" height="38" fill="white" transform="translate(27.3945 11.9404)"/>
</clipPath>
<clipPath id="clip1_305_1631">
<rect width="28" height="25" fill="white" transform="translate(32 16.9404)"/>
</clipPath>
</defs>
</svg>
