<svg width="282" height="70" viewBox="0 0 282 70" fill="none" xmlns="http://www.w3.org/2000/svg">
<path d="M5.18414 12.5014C5.71222 -3.17675 74.0453 5.11826 88.1816 5.78514C99.2439 5.78514 109.671 4.68582 120.944 4.68582C137.38 4.68582 153.573 4.95144 169.966 5.54065C188.081 6.19175 206.2 5.22394 224.326 5.54065C234.805 5.72373 270.885 5.36885 276.018 12.3793C278.297 15.4924 271.65 18.2472 271.65 21.1718C271.65 22.6751 274.366 24.415 275.168 25.8123C281.682 37.1587 279.036 49.5441 273.591 60.8603C270.317 67.666 265.994 66.2335 254.176 66.2335C242.451 66.2335 230.69 66.0785 218.987 66.4777C175.681 67.9551 133.421 65.9082 90.3657 65.1344C80.0209 64.9485 69.627 65.4258 59.3023 64.8902C32.11 63.4795 3 57.4878 3 42.054C3 32.1744 4.85036 22.411 5.18414 12.5014Z" fill="#EEEB3F" stroke="#013019" stroke-width="5" stroke-linecap="round"/>
<mask id="path-2-outside-1_307_1647" maskUnits="userSpaceOnUse" x="39" y="25" width="207" height="23" fill="black">
<rect fill="white" x="39" y="25" width="207" height="23"/>
<path d="M46.5664 45H42.0864C42.0213 45 41.9888 44.9593 41.9888 44.8779L42.0376 27.7026C42.0376 27.6375 42.0701 27.605 42.1353 27.605H46.9448C47.8807 27.605 48.7311 27.8328 49.4961 28.2886C50.2448 28.7443 50.8348 29.3506 51.2661 30.1074C51.6974 30.8561 51.9131 31.6699 51.9131 32.5488C51.9131 33.265 51.7503 33.9323 51.4248 34.5508C51.0993 35.1693 50.7127 35.6698 50.2651 36.0522C50.7453 36.5324 51.1196 37.0898 51.3882 37.7246C51.6567 38.3594 51.791 39.0267 51.791 39.7266C51.791 40.695 51.5591 41.578 51.0952 42.3755C50.6232 43.173 49.9925 43.8118 49.2031 44.292C48.4137 44.764 47.5348 45 46.5664 45ZM46.9448 30.5713H45.0405V34.502H46.9448C47.5226 34.502 47.9906 34.2985 48.3486 33.8916C48.7067 33.4766 48.8857 33.029 48.8857 32.5488C48.8857 32.0199 48.6945 31.5601 48.312 31.1694C47.9295 30.7707 47.4738 30.5713 46.9448 30.5713ZM46.5664 37.5293H45.0405L45.0161 41.9482H46.5664C47.1686 41.9482 47.6854 41.7285 48.1167 41.2891C48.548 40.8496 48.7637 40.3288 48.7637 39.7266C48.7637 39.1243 48.548 38.6076 48.1167 38.1763C47.6854 37.745 47.1686 37.5293 46.5664 37.5293ZM62.9375 45.2441C62.0586 45.2441 61.2448 45.0163 60.4961 44.5605C59.7474 44.1048 59.1493 43.4945 58.7017 42.7295C58.2622 41.9564 58.0425 41.1141 58.0425 40.2026L58.0913 27.7026C58.0913 27.6375 58.1239 27.605 58.189 27.605H60.9966C61.0617 27.605 61.0942 27.6375 61.0942 27.7026V40.2026C61.0942 40.7642 61.2733 41.2443 61.6313 41.6431C61.9894 42.0337 62.4248 42.229 62.9375 42.229C63.4746 42.229 63.9222 42.0337 64.2803 41.6431C64.6383 41.2443 64.8174 40.7642 64.8174 40.2026V27.7026C64.8174 27.6375 64.8499 27.605 64.915 27.605H67.7227C67.7878 27.605 67.8203 27.6375 67.8203 27.7026L67.8691 40.2026C67.8691 41.1222 67.6494 41.9686 67.21 42.7417C66.7624 43.5067 66.1683 44.117 65.4277 44.5728C64.6872 45.0203 63.8571 45.2441 62.9375 45.2441ZM79.7969 45H76.9282C76.8713 45 76.8428 44.9674 76.8428 44.9023L76.8672 37.7979L73.5225 27.7026C73.5062 27.6375 73.5306 27.605 73.5957 27.605H76.3789C76.4603 27.605 76.5091 27.6375 76.5254 27.7026L78.3687 34.4287L80.2485 27.7026C80.2648 27.6375 80.3055 27.605 80.3706 27.605H83.1782C83.2433 27.605 83.2677 27.6375 83.2515 27.7026L79.8701 37.7002L79.8945 44.9023C79.8945 44.9674 79.862 45 79.7969 45ZM105.239 45.2441C104.352 45.2441 103.534 45.0163 102.786 44.5605C102.045 44.1048 101.447 43.4985 100.991 42.7417C100.544 41.9767 100.32 41.1385 100.32 40.2271L100.344 32.3047C100.344 31.377 100.568 30.5428 101.016 29.8022C101.455 29.0535 102.049 28.4554 102.798 28.0078C103.547 27.5521 104.36 27.3242 105.239 27.3242C106.151 27.3242 106.969 27.548 107.693 27.9956C108.425 28.4432 109.011 29.0454 109.451 29.8022C109.898 30.5509 110.122 31.3851 110.122 32.3047L110.146 40.2271C110.146 41.1385 109.927 41.9727 109.487 42.7295C109.04 43.4945 108.446 44.1048 107.705 44.5605C106.965 45.0163 106.143 45.2441 105.239 45.2441ZM105.239 42.229C105.744 42.229 106.183 42.0256 106.558 41.6187C106.932 41.2036 107.119 40.7397 107.119 40.2271L107.095 32.3047C107.095 31.7513 106.92 31.2834 106.57 30.9009C106.22 30.5184 105.776 30.3271 105.239 30.3271C104.727 30.3271 104.287 30.5143 103.921 30.8887C103.555 31.263 103.372 31.735 103.372 32.3047V40.2271C103.372 40.7723 103.555 41.2443 103.921 41.6431C104.287 42.0337 104.727 42.229 105.239 42.229ZM119.511 45H117.008C116.878 45 116.813 44.943 116.813 44.8291L116.789 27.8003C116.789 27.6701 116.854 27.605 116.984 27.605H119.242L123.466 37.4561L123.344 27.8003C123.344 27.6701 123.417 27.605 123.563 27.605H126.042C126.139 27.605 126.188 27.6701 126.188 27.8003L126.212 44.8535C126.212 44.9512 126.172 45 126.09 45H123.893L119.56 35.7959L119.743 44.8047C119.743 44.9349 119.665 45 119.511 45ZM147.309 45H144.477C144.412 45 144.379 44.9593 144.379 44.8779L144.428 27.7026C144.428 27.6375 144.461 27.605 144.526 27.605H149.58C150.483 27.605 151.313 27.8247 152.07 28.2642C152.827 28.7036 153.429 29.2936 153.876 30.0342C154.332 30.7747 154.56 31.613 154.56 32.5488C154.56 33.1592 154.466 33.7126 154.279 34.209C154.092 34.7054 153.872 35.1245 153.62 35.4663C153.376 35.8081 153.152 36.0604 152.949 36.2231C153.852 37.2241 154.304 38.4001 154.304 39.751L154.328 44.8779C154.328 44.9593 154.287 45 154.206 45H151.374C151.309 45 151.276 44.9756 151.276 44.9268V39.751C151.276 39.1488 151.065 38.6279 150.642 38.1885C150.218 37.749 149.698 37.5293 149.079 37.5293H147.431L147.407 44.8779C147.407 44.9593 147.374 45 147.309 45ZM149.58 30.5957H147.431V34.5264H149.58C150.092 34.5264 150.548 34.3351 150.947 33.9526C151.354 33.5701 151.557 33.1022 151.557 32.5488C151.557 32.0199 151.362 31.5641 150.971 31.1816C150.581 30.791 150.117 30.5957 149.58 30.5957ZM160.348 44.8779L163.448 27.7026C163.465 27.6375 163.505 27.605 163.57 27.605H167.196C167.261 27.605 167.302 27.6375 167.318 27.7026L170.296 44.8779C170.305 44.9593 170.272 45 170.199 45H167.428C167.346 45 167.302 44.9593 167.293 44.8779L167.025 43.0469H163.619L163.351 44.8779C163.342 44.9593 163.302 45 163.229 45H160.445C160.38 45 160.348 44.9593 160.348 44.8779ZM165.243 33.3545L164.12 40.3735H166.524L165.499 33.3545L165.353 32.4268L165.243 33.3545ZM180.063 45H177.195C177.138 45 177.109 44.9674 177.109 44.9023L177.134 37.7979L173.789 27.7026C173.773 27.6375 173.797 27.605 173.862 27.605H176.646C176.727 27.605 176.776 27.6375 176.792 27.7026L178.635 34.4287L180.515 27.7026C180.531 27.6375 180.572 27.605 180.637 27.605H183.445C183.51 27.605 183.534 27.6375 183.518 27.7026L180.137 37.7002L180.161 44.9023C180.161 44.9674 180.129 45 180.063 45ZM194.237 44.9756L189.757 45C189.676 45 189.635 44.9593 189.635 44.8779L189.684 27.7026C189.684 27.6375 189.717 27.605 189.782 27.605L194.457 27.5806C195.385 27.5562 196.223 27.7677 196.972 28.2153C197.729 28.6629 198.331 29.2692 198.778 30.0342C199.234 30.791 199.462 31.6292 199.462 32.5488V39.7266C199.462 40.6868 199.23 41.5658 198.766 42.3633C198.294 43.1527 197.667 43.7834 196.886 44.2554C196.105 44.7192 195.222 44.9593 194.237 44.9756ZM194.457 30.5713L192.711 30.5957L192.687 41.9238H194.237C194.856 41.9238 195.377 41.7082 195.8 41.2769C196.223 40.8455 196.435 40.3288 196.435 39.7266V32.5244C196.435 31.9954 196.239 31.5356 195.849 31.145C195.458 30.7463 194.994 30.555 194.457 30.5713ZM209.131 45H206.299C206.218 45 206.177 44.9593 206.177 44.8779L206.202 27.7026C206.202 27.6375 206.234 27.605 206.299 27.605H209.107C209.172 27.605 209.205 27.6375 209.205 27.7026L209.229 44.8779C209.229 44.9593 209.196 45 209.131 45ZM220.778 45.2441C219.899 45.2441 219.086 45.0163 218.337 44.5605C217.588 44.1048 216.99 43.4945 216.542 42.7295C216.103 41.9564 215.883 41.1141 215.883 40.2026L215.932 27.7026C215.932 27.6375 215.965 27.605 216.03 27.605H218.837C218.903 27.605 218.935 27.6375 218.935 27.7026V40.2026C218.935 40.7642 219.114 41.2443 219.472 41.6431C219.83 42.0337 220.266 42.229 220.778 42.229C221.315 42.229 221.763 42.0337 222.121 41.6431C222.479 41.2443 222.658 40.7642 222.658 40.2026V27.7026C222.658 27.6375 222.691 27.605 222.756 27.605H225.563C225.629 27.605 225.661 27.6375 225.661 27.7026L225.71 40.2026C225.71 41.1222 225.49 41.9686 225.051 42.7417C224.603 43.5067 224.009 44.117 223.269 44.5728C222.528 45.0203 221.698 45.2441 220.778 45.2441ZM235.355 45H232.523C232.458 45 232.425 44.9593 232.425 44.8779L232.474 27.7026C232.474 27.6375 232.507 27.605 232.572 27.605H235.624C235.689 27.605 235.746 27.6375 235.794 27.7026L238.077 30.9985L240.348 27.7026C240.396 27.6375 240.458 27.605 240.531 27.605H243.595C243.668 27.605 243.705 27.6375 243.705 27.7026L243.753 44.8779C243.753 44.9593 243.721 45 243.656 45H240.824C240.759 45 240.726 44.9593 240.726 44.8779L240.702 32.1216L238.077 35.9302L235.477 32.1216L235.453 44.8779C235.453 44.9593 235.42 45 235.355 45Z"/>
</mask>
<path d="M46.5664 45H42.0864C42.0213 45 41.9888 44.9593 41.9888 44.8779L42.0376 27.7026C42.0376 27.6375 42.0701 27.605 42.1353 27.605H46.9448C47.8807 27.605 48.7311 27.8328 49.4961 28.2886C50.2448 28.7443 50.8348 29.3506 51.2661 30.1074C51.6974 30.8561 51.9131 31.6699 51.9131 32.5488C51.9131 33.265 51.7503 33.9323 51.4248 34.5508C51.0993 35.1693 50.7127 35.6698 50.2651 36.0522C50.7453 36.5324 51.1196 37.0898 51.3882 37.7246C51.6567 38.3594 51.791 39.0267 51.791 39.7266C51.791 40.695 51.5591 41.578 51.0952 42.3755C50.6232 43.173 49.9925 43.8118 49.2031 44.292C48.4137 44.764 47.5348 45 46.5664 45ZM46.9448 30.5713H45.0405V34.502H46.9448C47.5226 34.502 47.9906 34.2985 48.3486 33.8916C48.7067 33.4766 48.8857 33.029 48.8857 32.5488C48.8857 32.0199 48.6945 31.5601 48.312 31.1694C47.9295 30.7707 47.4738 30.5713 46.9448 30.5713ZM46.5664 37.5293H45.0405L45.0161 41.9482H46.5664C47.1686 41.9482 47.6854 41.7285 48.1167 41.2891C48.548 40.8496 48.7637 40.3288 48.7637 39.7266C48.7637 39.1243 48.548 38.6076 48.1167 38.1763C47.6854 37.745 47.1686 37.5293 46.5664 37.5293ZM62.9375 45.2441C62.0586 45.2441 61.2448 45.0163 60.4961 44.5605C59.7474 44.1048 59.1493 43.4945 58.7017 42.7295C58.2622 41.9564 58.0425 41.1141 58.0425 40.2026L58.0913 27.7026C58.0913 27.6375 58.1239 27.605 58.189 27.605H60.9966C61.0617 27.605 61.0942 27.6375 61.0942 27.7026V40.2026C61.0942 40.7642 61.2733 41.2443 61.6313 41.6431C61.9894 42.0337 62.4248 42.229 62.9375 42.229C63.4746 42.229 63.9222 42.0337 64.2803 41.6431C64.6383 41.2443 64.8174 40.7642 64.8174 40.2026V27.7026C64.8174 27.6375 64.8499 27.605 64.915 27.605H67.7227C67.7878 27.605 67.8203 27.6375 67.8203 27.7026L67.8691 40.2026C67.8691 41.1222 67.6494 41.9686 67.21 42.7417C66.7624 43.5067 66.1683 44.117 65.4277 44.5728C64.6872 45.0203 63.8571 45.2441 62.9375 45.2441ZM79.7969 45H76.9282C76.8713 45 76.8428 44.9674 76.8428 44.9023L76.8672 37.7979L73.5225 27.7026C73.5062 27.6375 73.5306 27.605 73.5957 27.605H76.3789C76.4603 27.605 76.5091 27.6375 76.5254 27.7026L78.3687 34.4287L80.2485 27.7026C80.2648 27.6375 80.3055 27.605 80.3706 27.605H83.1782C83.2433 27.605 83.2677 27.6375 83.2515 27.7026L79.8701 37.7002L79.8945 44.9023C79.8945 44.9674 79.862 45 79.7969 45ZM105.239 45.2441C104.352 45.2441 103.534 45.0163 102.786 44.5605C102.045 44.1048 101.447 43.4985 100.991 42.7417C100.544 41.9767 100.32 41.1385 100.32 40.2271L100.344 32.3047C100.344 31.377 100.568 30.5428 101.016 29.8022C101.455 29.0535 102.049 28.4554 102.798 28.0078C103.547 27.5521 104.36 27.3242 105.239 27.3242C106.151 27.3242 106.969 27.548 107.693 27.9956C108.425 28.4432 109.011 29.0454 109.451 29.8022C109.898 30.5509 110.122 31.3851 110.122 32.3047L110.146 40.2271C110.146 41.1385 109.927 41.9727 109.487 42.7295C109.04 43.4945 108.446 44.1048 107.705 44.5605C106.965 45.0163 106.143 45.2441 105.239 45.2441ZM105.239 42.229C105.744 42.229 106.183 42.0256 106.558 41.6187C106.932 41.2036 107.119 40.7397 107.119 40.2271L107.095 32.3047C107.095 31.7513 106.92 31.2834 106.57 30.9009C106.22 30.5184 105.776 30.3271 105.239 30.3271C104.727 30.3271 104.287 30.5143 103.921 30.8887C103.555 31.263 103.372 31.735 103.372 32.3047V40.2271C103.372 40.7723 103.555 41.2443 103.921 41.6431C104.287 42.0337 104.727 42.229 105.239 42.229ZM119.511 45H117.008C116.878 45 116.813 44.943 116.813 44.8291L116.789 27.8003C116.789 27.6701 116.854 27.605 116.984 27.605H119.242L123.466 37.4561L123.344 27.8003C123.344 27.6701 123.417 27.605 123.563 27.605H126.042C126.139 27.605 126.188 27.6701 126.188 27.8003L126.212 44.8535C126.212 44.9512 126.172 45 126.09 45H123.893L119.56 35.7959L119.743 44.8047C119.743 44.9349 119.665 45 119.511 45ZM147.309 45H144.477C144.412 45 144.379 44.9593 144.379 44.8779L144.428 27.7026C144.428 27.6375 144.461 27.605 144.526 27.605H149.58C150.483 27.605 151.313 27.8247 152.07 28.2642C152.827 28.7036 153.429 29.2936 153.876 30.0342C154.332 30.7747 154.56 31.613 154.56 32.5488C154.56 33.1592 154.466 33.7126 154.279 34.209C154.092 34.7054 153.872 35.1245 153.62 35.4663C153.376 35.8081 153.152 36.0604 152.949 36.2231C153.852 37.2241 154.304 38.4001 154.304 39.751L154.328 44.8779C154.328 44.9593 154.287 45 154.206 45H151.374C151.309 45 151.276 44.9756 151.276 44.9268V39.751C151.276 39.1488 151.065 38.6279 150.642 38.1885C150.218 37.749 149.698 37.5293 149.079 37.5293H147.431L147.407 44.8779C147.407 44.9593 147.374 45 147.309 45ZM149.58 30.5957H147.431V34.5264H149.58C150.092 34.5264 150.548 34.3351 150.947 33.9526C151.354 33.5701 151.557 33.1022 151.557 32.5488C151.557 32.0199 151.362 31.5641 150.971 31.1816C150.581 30.791 150.117 30.5957 149.58 30.5957ZM160.348 44.8779L163.448 27.7026C163.465 27.6375 163.505 27.605 163.57 27.605H167.196C167.261 27.605 167.302 27.6375 167.318 27.7026L170.296 44.8779C170.305 44.9593 170.272 45 170.199 45H167.428C167.346 45 167.302 44.9593 167.293 44.8779L167.025 43.0469H163.619L163.351 44.8779C163.342 44.9593 163.302 45 163.229 45H160.445C160.38 45 160.348 44.9593 160.348 44.8779ZM165.243 33.3545L164.12 40.3735H166.524L165.499 33.3545L165.353 32.4268L165.243 33.3545ZM180.063 45H177.195C177.138 45 177.109 44.9674 177.109 44.9023L177.134 37.7979L173.789 27.7026C173.773 27.6375 173.797 27.605 173.862 27.605H176.646C176.727 27.605 176.776 27.6375 176.792 27.7026L178.635 34.4287L180.515 27.7026C180.531 27.6375 180.572 27.605 180.637 27.605H183.445C183.51 27.605 183.534 27.6375 183.518 27.7026L180.137 37.7002L180.161 44.9023C180.161 44.9674 180.129 45 180.063 45ZM194.237 44.9756L189.757 45C189.676 45 189.635 44.9593 189.635 44.8779L189.684 27.7026C189.684 27.6375 189.717 27.605 189.782 27.605L194.457 27.5806C195.385 27.5562 196.223 27.7677 196.972 28.2153C197.729 28.6629 198.331 29.2692 198.778 30.0342C199.234 30.791 199.462 31.6292 199.462 32.5488V39.7266C199.462 40.6868 199.23 41.5658 198.766 42.3633C198.294 43.1527 197.667 43.7834 196.886 44.2554C196.105 44.7192 195.222 44.9593 194.237 44.9756ZM194.457 30.5713L192.711 30.5957L192.687 41.9238H194.237C194.856 41.9238 195.377 41.7082 195.8 41.2769C196.223 40.8455 196.435 40.3288 196.435 39.7266V32.5244C196.435 31.9954 196.239 31.5356 195.849 31.145C195.458 30.7463 194.994 30.555 194.457 30.5713ZM209.131 45H206.299C206.218 45 206.177 44.9593 206.177 44.8779L206.202 27.7026C206.202 27.6375 206.234 27.605 206.299 27.605H209.107C209.172 27.605 209.205 27.6375 209.205 27.7026L209.229 44.8779C209.229 44.9593 209.196 45 209.131 45ZM220.778 45.2441C219.899 45.2441 219.086 45.0163 218.337 44.5605C217.588 44.1048 216.99 43.4945 216.542 42.7295C216.103 41.9564 215.883 41.1141 215.883 40.2026L215.932 27.7026C215.932 27.6375 215.965 27.605 216.03 27.605H218.837C218.903 27.605 218.935 27.6375 218.935 27.7026V40.2026C218.935 40.7642 219.114 41.2443 219.472 41.6431C219.83 42.0337 220.266 42.229 220.778 42.229C221.315 42.229 221.763 42.0337 222.121 41.6431C222.479 41.2443 222.658 40.7642 222.658 40.2026V27.7026C222.658 27.6375 222.691 27.605 222.756 27.605H225.563C225.629 27.605 225.661 27.6375 225.661 27.7026L225.71 40.2026C225.71 41.1222 225.49 41.9686 225.051 42.7417C224.603 43.5067 224.009 44.117 223.269 44.5728C222.528 45.0203 221.698 45.2441 220.778 45.2441ZM235.355 45H232.523C232.458 45 232.425 44.9593 232.425 44.8779L232.474 27.7026C232.474 27.6375 232.507 27.605 232.572 27.605H235.624C235.689 27.605 235.746 27.6375 235.794 27.7026L238.077 30.9985L240.348 27.7026C240.396 27.6375 240.458 27.605 240.531 27.605H243.595C243.668 27.605 243.705 27.6375 243.705 27.7026L243.753 44.8779C243.753 44.9593 243.721 45 243.656 45H240.824C240.759 45 240.726 44.9593 240.726 44.8779L240.702 32.1216L238.077 35.9302L235.477 32.1216L235.453 44.8779C235.453 44.9593 235.42 45 235.355 45Z" fill="#028545"/>
<path d="M41.9888 44.8779L39.9888 44.8722V44.8779H41.9888ZM42.0376 27.7026L44.0376 27.7083V27.7026H42.0376ZM49.4961 28.2886L50.536 26.5802L50.5279 26.5752L50.5197 26.5704L49.4961 28.2886ZM51.2661 30.1074L49.5285 31.0977L49.5331 31.1058L51.2661 30.1074ZM50.2651 36.0522L48.9658 34.5318L47.3214 35.937L48.8509 37.4665L50.2651 36.0522ZM51.0952 42.3755L52.8164 43.3941L52.8202 43.3876L52.8241 43.381L51.0952 42.3755ZM49.2031 44.292L50.2295 46.0085L50.236 46.0047L50.2425 46.0007L49.2031 44.292ZM45.0405 30.5713V28.5713H43.0405V30.5713H45.0405ZM45.0405 34.502H43.0405V36.502H45.0405V34.502ZM48.3486 33.8916L49.8501 35.2129L49.8565 35.2055L49.8629 35.1981L48.3486 33.8916ZM48.312 31.1694L46.8686 32.5539L46.8758 32.5613L46.883 32.5687L48.312 31.1694ZM45.0405 37.5293V35.5293H43.0515L43.0406 37.5182L45.0405 37.5293ZM45.0161 41.9482L43.0161 41.9372L43.005 43.9482H45.0161V41.9482ZM46.5664 43H42.0864V47H46.5664V43ZM42.0864 43C42.4953 43 43.1188 43.1499 43.5749 43.7201C43.9629 44.2051 43.9888 44.7049 43.9888 44.8779H39.9888C39.9888 45.1323 40.0309 45.6932 40.4514 46.2189C40.9402 46.8298 41.6125 47 42.0864 47V43ZM43.9888 44.8836L44.0376 27.7083L40.0376 27.697L39.9888 44.8722L43.9888 44.8836ZM44.0376 27.7026C44.0376 27.9784 43.9673 28.5525 43.4762 29.0436C42.9851 29.5347 42.411 29.605 42.1353 29.605V25.605C41.7944 25.605 41.1714 25.6915 40.6478 26.2152C40.1242 26.7388 40.0376 27.3618 40.0376 27.7026H44.0376ZM42.1353 29.605H46.9448V25.605H42.1353V29.605ZM46.9448 29.605C47.5395 29.605 48.0332 29.7451 48.4725 30.0068L50.5197 26.5704C49.4291 25.9206 48.2219 25.605 46.9448 25.605V29.605ZM48.4562 29.997C48.9171 30.2775 49.2662 30.6374 49.5285 31.0977L53.0037 29.1172C52.4034 28.0638 51.5725 27.2111 50.536 26.5802L48.4562 29.997ZM49.5331 31.1058C49.7864 31.5454 49.9131 32.014 49.9131 32.5488H53.9131C53.9131 31.3258 53.6085 30.1668 52.9991 29.1091L49.5331 31.1058ZM49.9131 32.5488C49.9131 32.9487 49.8255 33.2953 49.655 33.6193L53.1946 35.4823C53.6752 34.5693 53.9131 33.5812 53.9131 32.5488H49.9131ZM49.655 33.6193C49.4259 34.0545 49.1882 34.3417 48.9658 34.5318L51.5644 37.5727C52.2372 36.9978 52.7727 36.284 53.1946 35.4823L49.655 33.6193ZM48.8509 37.4665C49.1462 37.7617 49.3765 38.1027 49.5462 38.5039L53.2301 36.9453C52.8628 36.077 52.3444 35.3031 51.6794 34.638L48.8509 37.4665ZM49.5462 38.5039C49.7088 38.8882 49.791 39.2902 49.791 39.7266H53.791C53.791 38.7632 53.6046 37.8305 53.2301 36.9453L49.5462 38.5039ZM49.791 39.7266C49.791 40.36 49.6437 40.8932 49.3664 41.3699L52.8241 43.381C53.4745 42.2627 53.791 41.03 53.791 39.7266H49.791ZM49.3741 41.3568C49.0687 41.8728 48.6718 42.2742 48.1638 42.5833L50.2425 46.0007C51.3132 45.3495 52.1777 44.4733 52.8164 43.3941L49.3741 41.3568ZM48.1767 42.5754C47.7143 42.852 47.1933 43 46.5664 43V47C47.8763 47 49.1132 46.676 50.2295 46.0085L48.1767 42.5754ZM46.9448 28.5713H45.0405V32.5713H46.9448V28.5713ZM43.0405 30.5713V34.502H47.0405V30.5713H43.0405ZM45.0405 36.502H46.9448V32.502H45.0405V36.502ZM46.9448 36.502C48.0544 36.502 49.0848 36.0825 49.8501 35.2129L46.8472 32.5703C46.8463 32.5714 46.8538 32.5627 46.8709 32.5501C46.8883 32.5373 46.9093 32.525 46.9317 32.5152C46.9538 32.5056 46.9698 32.5017 46.9756 32.5006C46.9808 32.4996 46.9718 32.502 46.9448 32.502V36.502ZM49.8629 35.1981C50.4871 34.4746 50.8857 33.5762 50.8857 32.5488H46.8857C46.8857 32.5438 46.8863 32.5348 46.8884 32.5239C46.8905 32.5129 46.8932 32.5052 46.8945 32.5018C46.8976 32.494 46.8883 32.5226 46.8343 32.5851L49.8629 35.1981ZM50.8857 32.5488C50.8857 31.4775 50.4759 30.5206 49.741 29.7702L46.883 32.5687C46.8913 32.5772 46.8969 32.5836 46.9003 32.5877C46.902 32.5898 46.9032 32.5914 46.9039 32.5924C46.9047 32.5934 46.905 32.5939 46.905 32.5939C46.905 32.5939 46.9047 32.5935 46.9042 32.5926C46.9036 32.5917 46.9029 32.5904 46.902 32.5887C46.9001 32.5852 46.8979 32.5807 46.8957 32.5753C46.8934 32.5699 46.8914 32.5643 46.8897 32.5587C46.8881 32.5532 46.887 32.5485 46.8863 32.5449C46.8848 32.5372 46.8857 32.5377 46.8857 32.5488H50.8857ZM49.7554 29.785C49.0146 29.0126 48.0453 28.5713 46.9448 28.5713V32.5713C46.9508 32.5713 46.9452 32.5718 46.9309 32.5689C46.9163 32.5659 46.8991 32.5607 46.8817 32.5531C46.8645 32.5456 46.8536 32.5385 46.8497 32.5357C46.8461 32.5332 46.8529 32.5375 46.8686 32.5539L49.7554 29.785ZM46.5664 35.5293H45.0405V39.5293H46.5664V35.5293ZM43.0406 37.5182L43.0161 41.9372L47.0161 41.9593L47.0405 37.5403L43.0406 37.5182ZM45.0161 43.9482H46.5664V39.9482H45.0161V43.9482ZM46.5664 43.9482C47.719 43.9482 48.7462 43.503 49.5441 42.69L46.6893 39.8881C46.6632 39.9147 46.6449 39.9288 46.6355 39.9354C46.6306 39.9387 46.6274 39.9406 46.6257 39.9416C46.624 39.9425 46.6232 39.9429 46.6231 39.9429C46.623 39.943 46.6228 39.943 46.6222 39.9432C46.6217 39.9434 46.6199 39.9439 46.6167 39.9445C46.6106 39.9457 46.5948 39.9482 46.5664 39.9482V43.9482ZM49.5441 42.69C50.3332 41.886 50.7637 40.8658 50.7637 39.7266H46.7637C46.7637 39.7833 46.7547 39.8021 46.7541 39.8037C46.7531 39.8062 46.742 39.8344 46.6893 39.8881L49.5441 42.69ZM50.7637 39.7266C50.7637 38.5863 50.3319 37.563 49.5309 36.7621L46.7025 39.5905C46.7278 39.6158 46.7413 39.6336 46.7477 39.6431C46.754 39.6523 46.7559 39.6568 46.7562 39.6576C46.7565 39.6584 46.7578 39.6615 46.7594 39.6694C46.761 39.6777 46.7637 39.6959 46.7637 39.7266H50.7637ZM49.5309 36.7621C48.73 35.9611 47.7067 35.5293 46.5664 35.5293V39.5293C46.5971 39.5293 46.6153 39.532 46.6236 39.5336C46.6315 39.5351 46.6346 39.5364 46.6354 39.5368C46.6362 39.5371 46.6407 39.539 46.6499 39.5452C46.6593 39.5517 46.6772 39.5652 46.7025 39.5905L49.5309 36.7621ZM58.7017 42.7295L56.9629 43.7178L56.9691 43.7287L56.9754 43.7395L58.7017 42.7295ZM58.0425 40.2026L56.0425 40.1948V40.2026H58.0425ZM58.0913 27.7026L60.0913 27.7104V27.7026H58.0913ZM61.6313 41.6431L60.1433 42.9793L60.1501 42.987L60.157 42.9945L61.6313 41.6431ZM64.2803 41.6431L65.7546 42.9945L65.7615 42.987L65.7684 42.9793L64.2803 41.6431ZM67.8203 27.7026L65.8203 27.7026L65.8203 27.7104L67.8203 27.7026ZM67.8691 40.2026L69.8692 40.2026L69.8691 40.1948L67.8691 40.2026ZM67.21 42.7417L68.9362 43.7517L68.9425 43.7409L68.9487 43.73L67.21 42.7417ZM65.4277 44.5728L66.4623 46.2844L66.4691 46.2803L66.4759 46.2761L65.4277 44.5728ZM62.9375 43.2441C62.4243 43.2441 61.9704 43.1166 61.536 42.8521L59.4562 46.2689C60.5191 46.916 61.6928 47.2441 62.9375 47.2441V43.2441ZM61.536 42.8521C61.0737 42.5708 60.7101 42.2017 60.4279 41.7195L56.9754 43.7395C57.5884 44.7872 58.4211 45.6389 59.4562 46.2689L61.536 42.8521ZM60.4404 41.7412C60.1766 41.2771 60.0425 40.7766 60.0425 40.2026H56.0425C56.0425 41.4516 56.3478 42.6357 56.9629 43.7178L60.4404 41.7412ZM60.0425 40.2104L60.0913 27.7104L56.0913 27.6948L56.0425 40.1948L60.0425 40.2104ZM60.0913 27.7026C60.0913 27.9784 60.021 28.5525 59.5299 29.0436C59.0389 29.5347 58.4647 29.605 58.189 29.605V25.605C57.8481 25.605 57.2251 25.6915 56.7015 26.2152C56.1779 26.7388 56.0913 27.3618 56.0913 27.7026H60.0913ZM58.189 29.605H60.9966V25.605H58.189V29.605ZM60.9966 29.605C60.7208 29.605 60.1467 29.5347 59.6556 29.0436C59.1645 28.5525 59.0942 27.9784 59.0942 27.7026H63.0942C63.0942 27.3618 63.0077 26.7388 62.484 26.2152C61.9604 25.6915 61.3374 25.605 60.9966 25.605V29.605ZM59.0942 27.7026V40.2026H63.0942V27.7026H59.0942ZM59.0942 40.2026C59.0942 41.2317 59.4387 42.1948 60.1433 42.9793L63.1194 40.3068C63.1083 40.2944 63.1038 40.2873 63.1029 40.2858C63.1024 40.2849 63.1022 40.2846 63.1023 40.2848C63.1025 40.2851 63.1025 40.2852 63.1025 40.2851C63.1024 40.285 63.102 40.284 63.1015 40.2818C63.1009 40.2795 63.0999 40.2756 63.0989 40.2697C63.0969 40.2582 63.0942 40.2365 63.0942 40.2026H59.0942ZM60.157 42.9945C60.8795 43.7827 61.8432 44.229 62.9375 44.229V40.229C62.9369 40.229 62.9492 40.229 62.971 40.2335C62.9933 40.2381 63.0189 40.246 63.045 40.2577C63.102 40.2833 63.121 40.3084 63.1057 40.2916L60.157 42.9945ZM62.9375 44.229C64.0265 44.229 65.0119 43.8048 65.7546 42.9945L62.806 40.2916C62.8009 40.2971 62.8047 40.292 62.8186 40.2819C62.8328 40.2716 62.8525 40.2598 62.8761 40.2494C62.8998 40.2391 62.9203 40.2334 62.9344 40.2306C62.9481 40.2279 62.9502 40.229 62.9375 40.229V44.229ZM65.7684 42.9793C66.4729 42.1948 66.8174 41.2317 66.8174 40.2026H62.8174C62.8174 40.2365 62.8147 40.2582 62.8127 40.2697C62.8117 40.2756 62.8108 40.2795 62.8102 40.2818C62.8096 40.284 62.8092 40.285 62.8091 40.2851C62.8091 40.2852 62.8092 40.2851 62.8093 40.2848C62.8094 40.2846 62.8093 40.2849 62.8087 40.2858C62.8078 40.2873 62.8034 40.2944 62.7922 40.3068L65.7684 42.9793ZM66.8174 40.2026V27.7026H62.8174V40.2026H66.8174ZM66.8174 27.7026C66.8174 27.9784 66.7471 28.5525 66.256 29.0436C65.7649 29.5347 65.1908 29.605 64.915 29.605V25.605C64.5742 25.605 63.9512 25.6915 63.4276 26.2152C62.9039 26.7388 62.8174 27.3618 62.8174 27.7026H66.8174ZM64.915 29.605H67.7227V25.605H64.915V29.605ZM67.7227 29.605C67.4469 29.605 66.8728 29.5347 66.3817 29.0436C65.8906 28.5525 65.8203 27.9784 65.8203 27.7026H69.8203C69.8203 27.3618 69.7337 26.7388 69.2101 26.2152C68.6865 25.6915 68.0635 25.605 67.7227 25.605V29.605ZM65.8203 27.7104L65.8692 40.2104L69.8691 40.1948L69.8203 27.6948L65.8203 27.7104ZM65.8691 40.2026C65.8691 40.788 65.7335 41.292 65.4712 41.7534L68.9487 43.73C69.5654 42.6451 69.8691 41.4564 69.8691 40.2026H65.8691ZM65.4837 41.7317C65.1985 42.2191 64.8351 42.5891 64.3795 42.8694L66.4759 46.2761C67.5015 45.6449 68.3262 44.7942 68.9362 43.7517L65.4837 41.7317ZM64.3932 42.8611C63.9845 43.1081 63.5162 43.2441 62.9375 43.2441V47.2441C64.198 47.2441 65.3898 46.9326 66.4623 46.2844L64.3932 42.8611ZM76.8428 44.9023L74.8428 44.8955V44.9023H76.8428ZM76.8672 37.7979L78.8672 37.8047L78.8683 37.4785L78.7657 37.1688L76.8672 37.7979ZM73.5225 27.7026L71.5822 28.1877L71.6004 28.2605L71.6239 28.3316L73.5225 27.7026ZM76.5254 27.7026L74.5851 28.1877L74.5906 28.2095L74.5965 28.2312L76.5254 27.7026ZM78.3687 34.4287L76.4398 34.9573L78.3497 41.9266L80.2948 34.9671L78.3687 34.4287ZM80.2485 27.7026L82.1747 28.241L82.1821 28.2144L82.1888 28.1877L80.2485 27.7026ZM83.2515 27.7026L85.146 28.3434L85.1721 28.2665L85.1917 28.1877L83.2515 27.7026ZM79.8701 37.7002L77.9755 37.0594L77.869 37.3744L77.8701 37.707L79.8701 37.7002ZM79.8945 44.9023L81.8945 44.9023L81.8945 44.8956L79.8945 44.9023ZM79.7969 43H76.9282V47H79.7969V43ZM76.9282 43C77.2826 43 77.8924 43.1136 78.3693 43.6586C78.8015 44.1525 78.8428 44.6873 78.8428 44.9023H74.8428C74.8428 45.1825 74.8983 45.7661 75.359 46.2926C75.8643 46.8701 76.5169 47 76.9282 47V43ZM78.8428 44.9092L78.8672 37.8047L74.8672 37.791L74.8428 44.8955L78.8428 44.9092ZM78.7657 37.1688L75.421 27.0736L71.6239 28.3316L74.9687 38.4269L78.7657 37.1688ZM75.4627 27.2176C75.5076 27.3968 75.6579 28.1236 75.1286 28.8294C74.5816 29.5587 73.8116 29.605 73.5957 29.605V25.605C73.3147 25.605 72.4999 25.6676 71.9286 26.4294C71.3748 27.1678 71.5211 27.9434 71.5822 28.1877L75.4627 27.2176ZM73.5957 29.605H76.3789V25.605H73.5957V29.605ZM76.3789 29.605C76.1723 29.605 75.7757 29.5658 75.3672 29.2935C74.9181 28.9941 74.6791 28.5636 74.5851 28.1877L78.4657 27.2176C78.3554 26.7765 78.0839 26.2972 77.586 25.9653C77.1286 25.6604 76.6669 25.605 76.3789 25.605V29.605ZM74.5965 28.2312L76.4398 34.9573L80.2975 33.9001L78.4543 27.174L74.5965 28.2312ZM80.2948 34.9671L82.1747 28.241L78.3224 27.1643L76.4425 33.8904L80.2948 34.9671ZM82.1888 28.1877C82.1215 28.4569 81.9497 28.8639 81.5406 29.1911C81.1254 29.5234 80.6763 29.605 80.3706 29.605V25.605C79.9998 25.605 79.4978 25.7029 79.0419 26.0677C78.5922 26.4274 78.3918 26.8833 78.3083 27.2176L82.1888 28.1877ZM80.3706 29.605H83.1782V25.605H80.3706V29.605ZM83.1782 29.605C82.9623 29.605 82.1923 29.5587 81.6454 28.8294C81.116 28.1236 81.2664 27.3968 81.3112 27.2176L85.1917 28.1877C85.2528 27.9434 85.3992 27.1678 84.8454 26.4294C84.274 25.6676 83.4592 25.605 83.1782 25.605V29.605ZM81.3569 27.0619L77.9755 37.0594L81.7647 38.341L85.146 28.3434L81.3569 27.0619ZM77.8701 37.707L77.8945 44.9091L81.8945 44.8956L81.8701 37.6934L77.8701 37.707ZM77.8945 44.9023C77.8945 44.6266 77.9648 44.0525 78.4559 43.5614C78.947 43.0703 79.5211 43 79.7969 43V47C80.1377 47 80.7607 46.9134 81.2843 46.3898C81.808 45.8662 81.8945 45.2432 81.8945 44.9023H77.8945ZM102.786 44.5605L101.737 46.2639L101.746 46.2689L102.786 44.5605ZM100.991 42.7417L99.265 43.7517L99.2714 43.7626L99.2779 43.7734L100.991 42.7417ZM100.32 40.2271L98.3198 40.2209V40.2271H100.32ZM100.344 32.3047L102.344 32.3109V32.3047H100.344ZM101.016 29.8022L102.727 30.8368L102.734 30.8257L102.74 30.8146L101.016 29.8022ZM102.798 28.0078L103.824 29.7244L103.831 29.7204L103.838 29.7162L102.798 28.0078ZM107.693 27.9956L106.641 29.697L106.65 29.7022L107.693 27.9956ZM109.451 29.8022L107.721 30.8065L107.728 30.8175L107.734 30.8285L109.451 29.8022ZM110.122 32.3047L108.122 32.3047L108.122 32.3109L110.122 32.3047ZM110.146 40.2271L112.146 40.2271L112.146 40.2209L110.146 40.2271ZM109.487 42.7295L111.214 43.7395L111.217 43.7338L109.487 42.7295ZM106.558 41.6187L108.029 42.9728L108.036 42.9655L108.043 42.9582L106.558 41.6187ZM107.119 40.2271L109.119 40.2271L109.119 40.2209L107.119 40.2271ZM107.095 32.3047L105.095 32.3047L105.095 32.3109L107.095 32.3047ZM103.921 41.6431L102.448 42.9959L102.455 43.0034L102.462 43.0109L103.921 41.6431ZM105.239 43.2441C104.714 43.2441 104.257 43.1147 103.826 42.8521L101.746 46.2689C102.812 46.9178 103.99 47.2441 105.239 47.2441V43.2441ZM103.834 42.8572C103.37 42.5718 102.998 42.1976 102.705 41.71L99.2779 43.7734C99.8957 44.7995 100.72 45.6379 101.737 46.2639L103.834 42.8572ZM102.717 41.7317C102.454 41.2821 102.32 40.7941 102.32 40.2271H98.3198C98.3198 41.483 98.6329 42.6714 99.265 43.7517L102.717 41.7317ZM102.32 40.2332L102.344 32.3109L98.3442 32.2985L98.3198 40.2209L102.32 40.2332ZM102.344 32.3047C102.344 31.7143 102.482 31.2426 102.727 30.8368L99.304 28.7677C98.6541 29.843 98.3442 31.0396 98.3442 32.3047H102.344ZM102.74 30.8146C103.009 30.3571 103.362 30.0005 103.824 29.7244L101.772 26.2912C100.736 26.9103 99.9011 27.75 99.2908 28.7898L102.74 30.8146ZM103.838 29.7162C104.272 29.4518 104.726 29.3242 105.239 29.3242V25.3242C103.995 25.3242 102.821 25.6524 101.758 26.2994L103.838 29.7162ZM105.239 29.3242C105.807 29.3242 106.256 29.4585 106.641 29.697L108.744 26.2943C107.682 25.6376 106.495 25.3242 105.239 25.3242V29.3242ZM106.65 29.7022C107.093 29.9729 107.445 30.3313 107.721 30.8065L111.18 28.798C110.577 27.7595 109.758 26.9135 108.736 26.289L106.65 29.7022ZM107.734 30.8285C107.986 31.2499 108.122 31.7261 108.122 32.3047H112.122C112.122 31.0441 111.811 29.852 111.167 28.776L107.734 30.8285ZM108.122 32.3109L108.146 40.2332L112.146 40.2209L112.122 32.2985L108.122 32.3109ZM108.146 40.2271C108.146 40.801 108.013 41.2864 107.758 41.7252L111.217 43.7338C111.841 42.6589 112.146 41.476 112.146 40.2271H108.146ZM107.761 41.7195C107.476 42.2069 107.112 42.5769 106.657 42.8572L108.753 46.2639C109.779 45.6327 110.604 44.782 111.214 43.7395L107.761 41.7195ZM106.657 42.8572C106.244 43.1112 105.788 43.2441 105.239 43.2441V47.2441C106.498 47.2441 107.685 46.9213 108.753 46.2639L106.657 42.8572ZM105.239 44.229C106.36 44.229 107.317 43.7473 108.029 42.9728L105.086 40.2645C105.052 40.3016 105.056 40.2849 105.107 40.2615C105.131 40.2505 105.157 40.2415 105.184 40.2357C105.211 40.23 105.23 40.229 105.239 40.229V44.229ZM108.043 42.9582C108.716 42.2116 109.119 41.2809 109.119 40.2271H105.119C105.119 40.2328 105.119 40.2318 105.12 40.2259C105.121 40.22 105.123 40.2145 105.124 40.2111C105.125 40.2079 105.124 40.2112 105.118 40.2214C105.111 40.232 105.097 40.2515 105.072 40.2791L108.043 42.9582ZM109.119 40.2209L109.095 32.2985L105.095 32.3109L105.119 40.2332L109.119 40.2209ZM109.095 32.3047C109.095 31.2884 108.757 30.3283 108.045 29.5509L105.094 32.2509C105.1 32.2574 105.1 32.2586 105.098 32.2542C105.095 32.2497 105.092 32.2442 105.09 32.2392C105.088 32.2343 105.089 32.2349 105.091 32.2434C105.092 32.2522 105.095 32.2719 105.095 32.3047H109.095ZM108.045 29.5509C107.301 28.7376 106.315 28.3271 105.239 28.3271V32.3271C105.266 32.3271 105.238 32.3308 105.183 32.3071C105.158 32.2963 105.136 32.2833 105.118 32.2706C105.101 32.2581 105.093 32.2497 105.094 32.2509L108.045 29.5509ZM105.239 28.3271C104.176 28.3271 103.225 28.7404 102.491 29.4901L105.351 32.2873C105.36 32.2773 105.361 32.2778 105.353 32.2838C105.344 32.29 105.329 32.299 105.309 32.3076C105.289 32.3162 105.27 32.3217 105.254 32.3247C105.239 32.3276 105.233 32.3271 105.239 32.3271V28.3271ZM102.491 29.4901C101.726 30.2727 101.372 31.2626 101.372 32.3047H105.372C105.372 32.2695 105.374 32.2495 105.376 32.242C105.377 32.2349 105.377 32.2375 105.374 32.2468C105.372 32.2511 105.37 32.2562 105.367 32.2616C105.364 32.267 105.361 32.2721 105.358 32.2766C105.352 32.2861 105.348 32.2897 105.351 32.2873L102.491 29.4901ZM101.372 32.3047V40.2271H105.372V32.3047H101.372ZM101.372 40.2271C101.372 41.2694 101.74 42.2252 102.448 42.9959L105.394 40.2903C105.379 40.2745 105.373 40.2653 105.372 40.2632C105.371 40.2612 105.372 40.2628 105.374 40.2666C105.375 40.2705 105.375 40.2717 105.374 40.2679C105.374 40.2639 105.372 40.251 105.372 40.2271H101.372ZM102.462 43.0109C103.187 43.7847 104.147 44.229 105.239 44.229V40.229C105.239 40.229 105.25 40.229 105.27 40.2332C105.291 40.2374 105.314 40.2446 105.337 40.2549C105.388 40.2774 105.401 40.2977 105.38 40.2752L102.462 43.0109ZM116.813 44.8291L118.813 44.8291L118.813 44.8262L116.813 44.8291ZM116.789 27.8003L114.789 27.8003L114.789 27.8032L116.789 27.8003ZM119.242 27.605L121.08 26.8169L120.561 25.605H119.242V27.605ZM123.466 37.4561L121.628 38.2442L125.466 37.4308L123.466 37.4561ZM123.344 27.8003H121.344V27.8129L121.344 27.8256L123.344 27.8003ZM126.188 27.8003L124.188 27.8003L124.188 27.8032L126.188 27.8003ZM126.212 44.8535L128.212 44.8535L128.212 44.8507L126.212 44.8535ZM123.893 45L122.084 45.8519L122.624 47H123.893V45ZM119.56 35.7959L121.369 34.944L117.56 35.8365L119.56 35.7959ZM119.743 44.8047H121.743V44.7844L121.742 44.764L119.743 44.8047ZM119.511 43H117.008V47H119.511V43ZM117.008 43C117.191 43 117.701 43.0341 118.179 43.4521C118.708 43.9147 118.813 44.5032 118.813 44.8291H114.813C114.813 45.2689 114.951 45.9428 115.545 46.4624C116.088 46.9374 116.696 47 117.008 47V43ZM118.813 44.8262L118.789 27.7974L114.789 27.8032L114.813 44.832L118.813 44.8262ZM118.789 27.8003C118.789 28.0435 118.726 28.5932 118.252 29.068C117.777 29.5428 117.227 29.605 116.984 29.605V25.605C116.61 25.605 115.963 25.6997 115.423 26.2396C114.883 26.7795 114.789 27.4269 114.789 27.8003H118.789ZM116.984 29.605H119.242V25.605H116.984V29.605ZM117.404 28.3931L121.628 38.2442L125.304 36.6679L121.08 26.8169L117.404 28.3931ZM125.466 37.4308L125.344 27.775L121.344 27.8256L121.466 37.4813L125.466 37.4308ZM125.344 27.8003C125.344 28.1085 125.246 28.6874 124.727 29.1486C124.253 29.5699 123.744 29.605 123.563 29.605V25.605C123.236 25.605 122.617 25.6726 122.07 26.159C121.478 26.6853 121.344 27.3619 121.344 27.8003H125.344ZM123.563 29.605H126.042V25.605H123.563V29.605ZM126.042 29.605C125.602 29.605 124.982 29.4283 124.551 28.8538C124.202 28.3876 124.188 27.9275 124.188 27.8003H128.188C128.188 27.5429 128.15 26.9852 127.751 26.4538C127.272 25.8143 126.578 25.605 126.042 25.605V29.605ZM124.188 27.8032L124.212 44.8564L128.212 44.8507L128.188 27.7974L124.188 27.8032ZM124.212 44.8535C124.212 44.6739 124.242 44.1668 124.645 43.683C125.107 43.1294 125.717 43 126.09 43V47C126.545 47 127.216 46.8462 127.718 46.2437C128.162 45.7111 128.212 45.1308 128.212 44.8535H124.212ZM126.09 43H123.893V47H126.09V43ZM125.703 44.1481L121.369 34.944L117.75 36.6478L122.084 45.8519L125.703 44.1481ZM117.56 35.8365L117.743 44.8453L121.742 44.764L121.559 35.7553L117.56 35.8365ZM117.743 44.8047C117.743 44.4628 117.86 43.8727 118.396 43.4213C118.867 43.0255 119.356 43 119.511 43V47C119.82 47 120.426 46.942 120.973 46.481C121.586 45.9646 121.743 45.2768 121.743 44.8047H117.743ZM144.379 44.8779L142.379 44.8722V44.8779H144.379ZM144.428 27.7026L146.428 27.7083V27.7026H144.428ZM153.876 30.0342L152.165 31.0687L152.169 31.0756L152.173 31.0824L153.876 30.0342ZM153.62 35.4663L152.011 34.2786L152.002 34.2911L151.993 34.3038L153.62 35.4663ZM152.949 36.2231L151.699 34.6614L150.042 35.9873L151.464 37.5631L152.949 36.2231ZM154.304 39.751L152.304 39.751L152.304 39.7605L154.304 39.751ZM154.328 44.8779L156.328 44.8779L156.328 44.8684L154.328 44.8779ZM147.431 37.5293V35.5293H145.438L145.431 37.5227L147.431 37.5293ZM147.407 44.8779L145.407 44.8713V44.8779H147.407ZM147.431 30.5957V28.5957H145.431V30.5957H147.431ZM147.431 34.5264H145.431V36.5264H147.431V34.5264ZM150.947 33.9526L149.577 32.4954L149.57 32.5023L149.562 32.5093L150.947 33.9526ZM150.971 31.1816L149.557 32.5959L149.564 32.6033L149.572 32.6107L150.971 31.1816ZM147.309 43H144.477V47H147.309V43ZM144.477 43C144.886 43 145.509 43.1499 145.966 43.7201C146.354 44.2051 146.379 44.7049 146.379 44.8779H142.379C142.379 45.1323 142.422 45.6932 142.842 46.2189C143.331 46.8298 144.003 47 144.477 47V43ZM146.379 44.8836L146.428 27.7083L142.428 27.697L142.379 44.8722L146.379 44.8836ZM146.428 27.7026C146.428 27.9784 146.358 28.5525 145.867 29.0436C145.376 29.5347 144.802 29.605 144.526 29.605V25.605C144.185 25.605 143.562 25.6915 143.038 26.2152C142.515 26.7388 142.428 27.3618 142.428 27.7026H146.428ZM144.526 29.605H149.58V25.605H144.526V29.605ZM149.58 29.605C150.142 29.605 150.624 29.7373 151.066 29.9937L153.074 26.5346C152.002 25.9121 150.824 25.605 149.58 25.605V29.605ZM151.066 29.9937C151.535 30.2666 151.893 30.6189 152.165 31.0687L155.588 28.9997C154.965 27.9683 154.118 27.1407 153.074 26.5346L151.066 29.9937ZM152.173 31.0824C152.42 31.4836 152.56 31.9537 152.56 32.5488H156.56C156.56 31.2722 156.244 30.0658 155.58 28.986L152.173 31.0824ZM152.56 32.5488C152.56 32.9539 152.498 33.2637 152.408 33.5034L156.151 34.9146C156.435 34.1614 156.56 33.3644 156.56 32.5488H152.56ZM152.408 33.5034C152.27 33.8686 152.131 34.1161 152.011 34.2786L155.229 36.654C155.614 36.133 155.914 35.5423 156.151 34.9146L152.408 33.5034ZM151.993 34.3038C151.902 34.4308 151.829 34.522 151.773 34.5846C151.716 34.6491 151.691 34.6682 151.699 34.6614L154.198 37.7849C154.606 37.4588 154.953 37.0409 155.248 36.6288L151.993 34.3038ZM151.464 37.5631C152.035 38.1958 152.304 38.894 152.304 39.751H156.304C156.304 37.9061 155.669 36.2525 154.434 34.8832L151.464 37.5631ZM152.304 39.7605L152.328 44.8875L156.328 44.8684L156.304 39.7415L152.304 39.7605ZM152.328 44.8779C152.328 44.6103 152.396 44.0423 152.883 43.5553C153.37 43.0683 153.938 43 154.206 43V47C154.555 47 155.184 46.9114 155.712 46.3837C156.24 45.856 156.328 45.2269 156.328 44.8779H152.328ZM154.206 43H151.374V47H154.206V43ZM151.374 43C151.534 43 152.018 43.0198 152.501 43.3817C153.092 43.8247 153.276 44.4632 153.276 44.9268H149.276C149.276 45.4392 149.478 46.1142 150.101 46.5817C150.616 46.968 151.149 47 151.374 47V43ZM153.276 44.9268V39.751H149.276V44.9268H153.276ZM153.276 39.751C153.276 38.6239 152.859 37.6079 152.082 36.8012L149.201 39.5758C149.251 39.6279 149.263 39.6563 149.265 39.6614C149.267 39.6662 149.276 39.6894 149.276 39.751H153.276ZM152.082 36.8012C151.276 35.9642 150.233 35.5293 149.079 35.5293V39.5293C149.115 39.5293 149.136 39.5324 149.146 39.5343C149.155 39.5361 149.158 39.5374 149.156 39.5368C149.155 39.5362 149.156 39.5364 149.161 39.5399C149.166 39.5436 149.18 39.5539 149.201 39.5758L152.082 36.8012ZM149.079 35.5293H147.431V39.5293H149.079V35.5293ZM145.431 37.5227L145.407 44.8713L149.407 44.8846L149.431 37.5359L145.431 37.5227ZM145.407 44.8779C145.407 44.7049 145.433 44.2051 145.821 43.7201C146.277 43.1499 146.9 43 147.309 43V47C147.783 47 148.455 46.8298 148.944 46.2189C149.365 45.6932 149.407 45.1323 149.407 44.8779H145.407ZM149.58 28.5957H147.431V32.5957H149.58V28.5957ZM145.431 30.5957V34.5264H149.431V30.5957H145.431ZM147.431 36.5264H149.58V32.5264H147.431V36.5264ZM149.58 36.5264C150.651 36.5264 151.592 36.1052 152.331 35.396L149.562 32.5093C149.54 32.5307 149.526 32.5404 149.522 32.5432C149.518 32.5457 149.522 32.543 149.532 32.5387C149.537 32.5367 149.542 32.5347 149.549 32.5328C149.555 32.5309 149.561 32.5295 149.566 32.5284C149.577 32.5261 149.583 32.5264 149.58 32.5264V36.5264ZM152.317 35.4099C153.121 34.6533 153.557 33.6598 153.557 32.5488H149.557C149.557 32.5641 149.556 32.5659 149.558 32.5571C149.559 32.5479 149.563 32.5337 149.57 32.5174C149.577 32.5011 149.585 32.4895 149.589 32.4836C149.593 32.4781 149.591 32.4824 149.577 32.4954L152.317 35.4099ZM153.557 32.5488C153.557 31.4622 153.131 30.4972 152.37 29.7526L149.572 32.6107C149.587 32.6255 149.591 32.6317 149.588 32.6281C149.586 32.6242 149.579 32.6139 149.572 32.5981C149.566 32.5823 149.561 32.567 149.559 32.5549C149.556 32.5432 149.557 32.5402 149.557 32.5488H153.557ZM152.385 29.7674C151.632 29.0137 150.664 28.5957 149.58 28.5957V32.5957C149.592 32.5957 149.593 32.5968 149.586 32.5953C149.582 32.5946 149.577 32.5935 149.572 32.5917C149.566 32.59 149.56 32.5879 149.554 32.5855C149.548 32.583 149.544 32.5806 149.54 32.5785C149.536 32.5765 149.534 32.575 149.533 32.5748C149.532 32.574 149.541 32.5794 149.557 32.5959L152.385 29.7674ZM160.348 44.8779L158.379 44.5226L158.348 44.6989V44.8779H160.348ZM163.448 27.7026L161.508 27.2176L161.492 27.282L161.48 27.3473L163.448 27.7026ZM167.318 27.7026L169.288 27.3609L169.276 27.2887L169.258 27.2176L167.318 27.7026ZM170.296 44.8779L172.286 44.6789L172.279 44.6072L172.267 44.5362L170.296 44.8779ZM167.293 44.8779L169.284 44.6789L169.279 44.6332L169.272 44.5877L167.293 44.8779ZM167.025 43.0469L169.004 42.7566L168.753 41.0469H167.025V43.0469ZM163.619 43.0469V41.0469H161.891L161.64 42.7566L163.619 43.0469ZM163.351 44.8779L161.372 44.5877L161.365 44.6332L161.361 44.6789L163.351 44.8779ZM165.243 33.3545L167.218 33.6705L167.224 33.6302L167.229 33.5897L165.243 33.3545ZM164.12 40.3735L162.145 40.0576L161.774 42.3735H164.12V40.3735ZM166.524 40.3735V42.3735H168.838L168.503 40.0844L166.524 40.3735ZM165.499 33.3545L167.478 33.0654L167.476 33.054L167.475 33.0426L165.499 33.3545ZM165.353 32.4268L167.328 32.1148L163.366 32.1916L165.353 32.4268ZM162.316 45.2332L165.416 28.0579L161.48 27.3473L158.379 44.5226L162.316 45.2332ZM165.389 28.1877C165.321 28.4569 165.149 28.8639 164.74 29.1911C164.325 29.5234 163.876 29.605 163.57 29.605V25.605C163.2 25.605 162.698 25.7029 162.242 26.0677C161.792 26.4274 161.592 26.8833 161.508 27.2176L165.389 28.1877ZM163.57 29.605H167.196V25.605H163.57V29.605ZM167.196 29.605C166.89 29.605 166.441 29.5234 166.026 29.1911C165.617 28.8639 165.445 28.4569 165.378 28.1877L169.258 27.2176C169.175 26.8833 168.974 26.4274 168.525 26.0677C168.069 25.7029 167.567 25.605 167.196 25.605V29.605ZM165.347 28.0444L168.326 45.2197L172.267 44.5362L169.288 27.3609L165.347 28.0444ZM168.306 45.0769C168.287 44.8839 168.262 44.288 168.716 43.7201C169.216 43.0951 169.887 43 170.199 43V47C170.584 47 171.307 46.8845 171.84 46.2189C172.327 45.6102 172.314 44.9534 172.286 44.6789L168.306 45.0769ZM170.199 43H167.428V47H170.199V43ZM167.428 43C167.71 43 168.221 43.074 168.678 43.4896C169.134 43.9039 169.256 44.4029 169.284 44.6789L165.303 45.0769C165.339 45.4343 165.487 45.9944 165.988 46.4494C166.49 46.9056 167.064 47 167.428 47V43ZM169.272 44.5877L169.004 42.7566L165.046 43.3371L165.315 45.1682L169.272 44.5877ZM167.025 41.0469H163.619V45.0469H167.025V41.0469ZM161.64 42.7566L161.372 44.5877L165.329 45.1682L165.598 43.3371L161.64 42.7566ZM161.361 44.6789C161.383 44.45 161.48 43.9747 161.9 43.5553C162.35 43.1053 162.887 43 163.229 43V47C163.644 47 164.237 46.8744 164.728 46.3837C165.188 45.9236 165.31 45.3872 165.341 45.0769L161.361 44.6789ZM163.229 43H160.445V47H163.229V43ZM160.445 43C160.854 43 161.478 43.1499 161.934 43.7201C162.322 44.2051 162.348 44.7049 162.348 44.8779H158.348C158.348 45.1323 158.39 45.6932 158.81 46.2189C159.299 46.8298 159.971 47 160.445 47V43ZM163.268 33.0385L162.145 40.0576L166.095 40.6895L167.218 33.6705L163.268 33.0385ZM164.12 42.3735H166.524V38.3735H164.12V42.3735ZM168.503 40.0844L167.478 33.0654L163.52 33.6436L164.545 40.6626L168.503 40.0844ZM167.475 33.0426L167.328 32.1148L163.377 32.7387L163.523 33.6664L167.475 33.0426ZM163.366 32.1916L163.257 33.1193L167.229 33.5897L167.339 32.662L163.366 32.1916ZM177.109 44.9023L175.109 44.8955V44.9023H177.109ZM177.134 37.7979L179.134 37.8047L179.135 37.4785L179.032 37.1688L177.134 37.7979ZM173.789 27.7026L171.849 28.1877L171.867 28.2605L171.891 28.3316L173.789 27.7026ZM176.792 27.7026L174.852 28.1877L174.857 28.2095L174.863 28.2312L176.792 27.7026ZM178.635 34.4287L176.706 34.9573L178.616 41.9266L180.561 34.9671L178.635 34.4287ZM180.515 27.7026L182.441 28.241L182.449 28.2144L182.455 28.1877L180.515 27.7026ZM183.518 27.7026L185.413 28.3434L185.439 28.2665L185.458 28.1877L183.518 27.7026ZM180.137 37.7002L178.242 37.0594L178.136 37.3744L178.137 37.707L180.137 37.7002ZM180.161 44.9023L182.161 44.9023L182.161 44.8956L180.161 44.9023ZM180.063 43H177.195V47H180.063V43ZM177.195 43C177.549 43 178.159 43.1136 178.636 43.6586C179.068 44.1525 179.109 44.6873 179.109 44.9023H175.109C175.109 45.1825 175.165 45.7661 175.626 46.2926C176.131 46.8701 176.783 47 177.195 47V43ZM179.109 44.9092L179.134 37.8047L175.134 37.791L175.109 44.8955L179.109 44.9092ZM179.032 37.1688L175.688 27.0736L171.891 28.3316L175.235 38.4269L179.032 37.1688ZM175.729 27.2176C175.774 27.3968 175.925 28.1236 175.395 28.8294C174.848 29.5587 174.078 29.605 173.862 29.605V25.605C173.581 25.605 172.767 25.6676 172.195 26.4294C171.641 27.1678 171.788 27.9434 171.849 28.1877L175.729 27.2176ZM173.862 29.605H176.646V25.605H173.862V29.605ZM176.646 29.605C176.439 29.605 176.042 29.5658 175.634 29.2935C175.185 28.9941 174.946 28.5636 174.852 28.1877L178.732 27.2176C178.622 26.7765 178.35 26.2972 177.853 25.9653C177.395 25.6604 176.933 25.605 176.646 25.605V29.605ZM174.863 28.2312L176.706 34.9573L180.564 33.9001L178.721 27.174L174.863 28.2312ZM180.561 34.9671L182.441 28.241L178.589 27.1643L176.709 33.8904L180.561 34.9671ZM182.455 28.1877C182.388 28.4569 182.216 28.8639 181.807 29.1911C181.392 29.5234 180.943 29.605 180.637 29.605V25.605C180.266 25.605 179.764 25.7029 179.308 26.0677C178.859 26.4274 178.658 26.8833 178.575 27.2176L182.455 28.1877ZM180.637 29.605H183.445V25.605H180.637V29.605ZM183.445 29.605C183.229 29.605 182.459 29.5587 181.912 28.8294C181.383 28.1236 181.533 27.3968 181.578 27.2176L185.458 28.1877C185.519 27.9434 185.666 27.1678 185.112 26.4294C184.541 25.6676 183.726 25.605 183.445 25.605V29.605ZM181.623 27.0619L178.242 37.0594L182.031 38.341L185.413 28.3434L181.623 27.0619ZM178.137 37.707L178.161 44.9091L182.161 44.8956L182.137 37.6934L178.137 37.707ZM178.161 44.9023C178.161 44.6266 178.231 44.0525 178.723 43.5614C179.214 43.0703 179.788 43 180.063 43V47C180.404 47 181.027 46.9134 181.551 46.3898C182.075 45.8662 182.161 45.2432 182.161 44.9023H178.161ZM194.237 44.9756L194.248 46.9756L194.259 46.9755L194.27 46.9753L194.237 44.9756ZM189.757 45L189.757 47L189.768 47L189.757 45ZM189.635 44.8779L187.635 44.8722V44.8779H189.635ZM189.684 27.7026L191.684 27.7083V27.7026H189.684ZM189.782 27.605L189.782 29.605L189.792 29.605L189.782 27.605ZM194.457 27.5806L194.467 29.5805L194.489 29.5804L194.51 29.5799L194.457 27.5806ZM196.972 28.2153L195.945 29.932L195.954 29.9368L196.972 28.2153ZM198.778 30.0342L197.052 31.0442L197.058 31.0551L197.065 31.0659L198.778 30.0342ZM198.766 42.3633L200.483 43.3897L200.489 43.3793L200.495 43.3688L198.766 42.3633ZM196.886 44.2554L197.907 45.9751L197.914 45.9712L197.92 45.9672L196.886 44.2554ZM194.457 30.5713L194.485 32.5711L194.501 32.5709L194.518 32.5704L194.457 30.5713ZM192.711 30.5957L192.683 28.5959L190.716 28.6234L190.711 30.5914L192.711 30.5957ZM192.687 41.9238L190.687 41.9195L190.683 43.9238H192.687V41.9238ZM195.8 41.2769L194.372 39.8762L195.8 41.2769ZM195.849 31.145L194.42 32.5446L194.427 32.5519L194.434 32.5592L195.849 31.145ZM194.226 42.9756L189.746 43L189.768 47L194.248 46.9756L194.226 42.9756ZM189.757 43C190.025 43 190.593 43.0683 191.08 43.5553C191.567 44.0423 191.635 44.6103 191.635 44.8779H187.635C187.635 45.2269 187.724 45.856 188.252 46.3837C188.779 46.9114 189.408 47 189.757 47V43ZM191.635 44.8836L191.684 27.7083L187.684 27.697L187.635 44.8722L191.635 44.8836ZM191.684 27.7026C191.684 27.9784 191.614 28.5525 191.123 29.0436C190.632 29.5347 190.057 29.605 189.782 29.605V25.605C189.441 25.605 188.818 25.6915 188.294 26.2152C187.771 26.7388 187.684 27.3618 187.684 27.7026H191.684ZM189.792 29.605L194.467 29.5805L194.447 25.5806L189.771 25.605L189.792 29.605ZM194.51 29.5799C195.084 29.5648 195.543 29.6916 195.945 29.932L197.998 26.4987C196.903 25.8439 195.686 25.5475 194.404 25.5813L194.51 29.5799ZM195.954 29.9368C196.415 30.2099 196.775 30.5703 197.052 31.0442L200.505 29.0242C199.887 27.9681 199.042 27.116 197.99 26.4938L195.954 29.9368ZM197.065 31.0659C197.325 31.4982 197.462 31.9772 197.462 32.5488H201.462C201.462 31.2812 201.143 30.0838 200.492 29.0025L197.065 31.0659ZM197.462 32.5488V39.7266H201.462V32.5488H197.462ZM197.462 39.7266C197.462 40.3487 197.316 40.8783 197.037 41.3577L200.495 43.3688C201.144 42.2532 201.462 41.025 201.462 39.7266H197.462ZM197.05 41.3369C196.744 41.8477 196.351 42.2421 195.852 42.5435L197.92 45.9672C198.984 45.3246 199.844 44.4577 200.483 43.3897L197.05 41.3369ZM195.865 42.5357C195.408 42.807 194.871 42.9648 194.204 42.9759L194.27 46.9753C195.573 46.9538 196.802 46.6315 197.907 45.9751L195.865 42.5357ZM194.429 28.5715L192.683 28.5959L192.739 32.5955L194.485 32.5711L194.429 28.5715ZM190.711 30.5914L190.687 41.9195L194.687 41.9281L194.711 30.6L190.711 30.5914ZM192.687 43.9238H194.237V39.9238H192.687V43.9238ZM194.237 43.9238C195.379 43.9238 196.418 43.5022 197.227 42.6775L194.372 39.8762C194.352 39.8967 194.339 39.9065 194.333 39.9102C194.331 39.9121 194.329 39.9131 194.328 39.9135C194.327 39.9139 194.327 39.9141 194.327 39.9142C194.326 39.9144 194.325 39.9148 194.323 39.9154C194.321 39.9161 194.317 39.9171 194.311 39.9183C194.299 39.9205 194.275 39.9238 194.237 39.9238V43.9238ZM197.227 42.6775C198.016 41.8737 198.435 40.8546 198.435 39.7266H194.435C194.435 39.7596 194.432 39.7801 194.43 39.7906C194.428 39.8008 194.426 39.8058 194.425 39.808C194.424 39.8102 194.422 39.8154 194.416 39.8247C194.409 39.8342 194.396 39.8517 194.372 39.8762L197.227 42.6775ZM198.435 39.7266V32.5244H194.435V39.7266H198.435ZM198.435 32.5244C198.435 31.4394 198.01 30.478 197.263 29.7308L194.434 32.5592C194.452 32.5769 194.458 32.5861 194.458 32.5857C194.458 32.5849 194.453 32.5777 194.447 32.5648C194.442 32.5517 194.438 32.5387 194.436 32.5282C194.434 32.518 194.435 32.5159 194.435 32.5244H198.435ZM197.277 29.7455C196.513 28.9651 195.516 28.5383 194.396 28.5722L194.518 32.5704C194.524 32.5702 194.518 32.5709 194.502 32.5681C194.485 32.5653 194.466 32.5599 194.445 32.5515C194.425 32.5432 194.412 32.5349 194.406 32.5307C194.4 32.5266 194.405 32.5293 194.42 32.5446L197.277 29.7455ZM206.177 44.8779L204.177 44.8751V44.8779H206.177ZM206.202 27.7026L208.202 27.7055V27.7026H206.202ZM209.205 27.7026L207.205 27.7026L207.205 27.7055L209.205 27.7026ZM209.229 44.8779L211.229 44.8779L211.229 44.8751L209.229 44.8779ZM209.131 43H206.299V47H209.131V43ZM206.299 43C206.567 43 207.135 43.0683 207.622 43.5553C208.109 44.0423 208.177 44.6103 208.177 44.8779H204.177C204.177 45.2269 204.266 45.856 204.794 46.3837C205.321 46.9114 205.95 47 206.299 47V43ZM208.177 44.8808L208.202 27.7055L204.202 27.6998L204.177 44.8751L208.177 44.8808ZM208.202 27.7026C208.202 27.9784 208.131 28.5525 207.64 29.0436C207.149 29.5347 206.575 29.605 206.299 29.605V25.605C205.958 25.605 205.335 25.6915 204.812 26.2152C204.288 26.7388 204.202 27.3618 204.202 27.7026H208.202ZM206.299 29.605H209.107V25.605H206.299V29.605ZM209.107 29.605C208.831 29.605 208.257 29.5347 207.766 29.0436C207.275 28.5525 207.205 27.9784 207.205 27.7026H211.205C211.205 27.3618 211.118 26.7388 210.594 26.2152C210.071 25.6915 209.448 25.605 209.107 25.605V29.605ZM207.205 27.7055L207.229 44.8808L211.229 44.8751L211.205 27.6998L207.205 27.7055ZM207.229 44.8779C207.229 44.7049 207.255 44.2051 207.643 43.7201C208.099 43.1499 208.722 43 209.131 43V47C209.605 47 210.278 46.8298 210.766 46.2189C211.187 45.6932 211.229 45.1323 211.229 44.8779H207.229ZM216.542 42.7295L214.804 43.7178L214.81 43.7287L214.816 43.7395L216.542 42.7295ZM215.883 40.2026L213.883 40.1948V40.2026H215.883ZM215.932 27.7026L217.932 27.7104V27.7026H215.932ZM219.472 41.6431L217.984 42.9793L217.991 42.987L217.998 42.9945L219.472 41.6431ZM222.121 41.6431L223.595 42.9945L223.602 42.987L223.609 42.9793L222.121 41.6431ZM225.661 27.7026L223.661 27.7026L223.661 27.7104L225.661 27.7026ZM225.71 40.2026L227.71 40.2026L227.71 40.1948L225.71 40.2026ZM225.051 42.7417L226.777 43.7517L226.783 43.7409L226.79 43.73L225.051 42.7417ZM223.269 44.5728L224.303 46.2844L224.31 46.2803L224.317 46.2761L223.269 44.5728ZM220.778 43.2441C220.265 43.2441 219.811 43.1166 219.377 42.8521L217.297 46.2689C218.36 46.916 219.534 47.2441 220.778 47.2441V43.2441ZM219.377 42.8521C218.915 42.5708 218.551 42.2017 218.269 41.7195L214.816 43.7395C215.429 44.7872 216.262 45.6389 217.297 46.2689L219.377 42.8521ZM218.281 41.7412C218.017 41.2771 217.883 40.7766 217.883 40.2026H213.883C213.883 41.4516 214.189 42.6357 214.804 43.7178L218.281 41.7412ZM217.883 40.2104L217.932 27.7104L213.932 27.6948L213.883 40.1948L217.883 40.2104ZM217.932 27.7026C217.932 27.9784 217.862 28.5525 217.371 29.0436C216.88 29.5347 216.306 29.605 216.03 29.605V25.605C215.689 25.605 215.066 25.6915 214.542 26.2152C214.019 26.7388 213.932 27.3618 213.932 27.7026H217.932ZM216.03 29.605H218.837V25.605H216.03V29.605ZM218.837 29.605C218.562 29.605 217.988 29.5347 217.496 29.0436C217.005 28.5525 216.935 27.9784 216.935 27.7026H220.935C220.935 27.3618 220.848 26.7388 220.325 26.2152C219.801 25.6915 219.178 25.605 218.837 25.605V29.605ZM216.935 27.7026V40.2026H220.935V27.7026H216.935ZM216.935 40.2026C216.935 41.2317 217.28 42.1948 217.984 42.9793L220.96 40.3068C220.949 40.2944 220.945 40.2873 220.944 40.2858C220.943 40.2849 220.943 40.2846 220.943 40.2848C220.943 40.2851 220.943 40.2852 220.943 40.2851C220.943 40.285 220.943 40.284 220.942 40.2818C220.942 40.2795 220.941 40.2756 220.94 40.2697C220.938 40.2582 220.935 40.2365 220.935 40.2026H216.935ZM217.998 42.9945C218.72 43.7827 219.684 44.229 220.778 44.229V40.229C220.778 40.229 220.79 40.229 220.812 40.2335C220.834 40.2381 220.86 40.246 220.886 40.2577C220.943 40.2833 220.962 40.3084 220.946 40.2916L217.998 42.9945ZM220.778 44.229C221.867 44.229 222.853 43.8048 223.595 42.9945L220.647 40.2916C220.642 40.2971 220.646 40.292 220.659 40.2819C220.674 40.2716 220.693 40.2598 220.717 40.2494C220.741 40.2391 220.761 40.2334 220.775 40.2306C220.789 40.2279 220.791 40.229 220.778 40.229V44.229ZM223.609 42.9793C224.314 42.1948 224.658 41.2317 224.658 40.2026H220.658C220.658 40.2365 220.656 40.2582 220.654 40.2697C220.653 40.2756 220.652 40.2795 220.651 40.2818C220.65 40.284 220.65 40.285 220.65 40.2851C220.65 40.2852 220.65 40.2851 220.65 40.2848C220.65 40.2846 220.65 40.2849 220.65 40.2858C220.649 40.2873 220.644 40.2944 220.633 40.3068L223.609 42.9793ZM224.658 40.2026V27.7026H220.658V40.2026H224.658ZM224.658 27.7026C224.658 27.9784 224.588 28.5525 224.097 29.0436C223.606 29.5347 223.032 29.605 222.756 29.605V25.605C222.415 25.605 221.792 25.6915 221.268 26.2152C220.745 26.7388 220.658 27.3618 220.658 27.7026H224.658ZM222.756 29.605H225.563V25.605H222.756V29.605ZM225.563 29.605C225.288 29.605 224.714 29.5347 224.223 29.0436C223.731 28.5525 223.661 27.9784 223.661 27.7026H227.661C227.661 27.3618 227.575 26.7388 227.051 26.2152C226.527 25.6915 225.904 25.605 225.563 25.605V29.605ZM223.661 27.7104L223.71 40.2104L227.71 40.1948L227.661 27.6948L223.661 27.7104ZM223.71 40.2026C223.71 40.788 223.574 41.292 223.312 41.7534L226.79 43.73C227.406 42.6451 227.71 41.4564 227.71 40.2026H223.71ZM223.325 41.7317C223.039 42.2191 222.676 42.5891 222.22 42.8694L224.317 46.2761C225.342 45.6449 226.167 44.7942 226.777 43.7517L223.325 41.7317ZM222.234 42.8611C221.825 43.1081 221.357 43.2441 220.778 43.2441V47.2441C222.039 47.2441 223.231 46.9326 224.303 46.2844L222.234 42.8611ZM232.425 44.8779L230.425 44.8722V44.8779H232.425ZM232.474 27.7026L234.474 27.7083V27.7026H232.474ZM235.794 27.7026L237.439 26.5639L237.417 26.5329L237.394 26.5026L235.794 27.7026ZM238.077 30.9985L236.433 32.1373L238.082 34.5176L239.724 32.1331L238.077 30.9985ZM240.348 27.7026L238.748 26.5026L238.723 26.5349L238.701 26.568L240.348 27.7026ZM243.705 27.7026L241.705 27.7026L241.705 27.7083L243.705 27.7026ZM243.753 44.8779L245.753 44.8779L245.753 44.8722L243.753 44.8779ZM240.726 44.8779L242.726 44.8779L242.726 44.8741L240.726 44.8779ZM240.702 32.1216L242.702 32.1178L242.689 25.7124L239.055 30.9867L240.702 32.1216ZM238.077 35.9302L236.425 37.0578L238.069 39.4661L239.724 37.065L238.077 35.9302ZM235.477 32.1216L237.129 30.9939L233.489 25.6629L233.477 32.1178L235.477 32.1216ZM235.453 44.8779L233.453 44.8741V44.8779H235.453ZM235.355 43H232.523V47H235.355V43ZM232.523 43C232.932 43 233.555 43.1499 234.011 43.7201C234.399 44.2051 234.425 44.7049 234.425 44.8779H230.425C230.425 45.1323 230.467 45.6932 230.888 46.2189C231.377 46.8298 232.049 47 232.523 47V43ZM234.425 44.8836L234.474 27.7083L230.474 27.697L230.425 44.8722L234.425 44.8836ZM234.474 27.7026C234.474 27.9784 234.404 28.5525 233.913 29.0436C233.422 29.5347 232.848 29.605 232.572 29.605V25.605C232.231 25.605 231.608 25.6915 231.084 26.2152C230.561 26.7388 230.474 27.3618 230.474 27.7026H234.474ZM232.572 29.605H235.624V25.605H232.572V29.605ZM235.624 29.605C235.305 29.605 234.994 29.5209 234.723 29.3659C234.465 29.2183 234.296 29.0376 234.194 28.9026L237.394 26.5026C237.073 26.0736 236.474 25.605 235.624 25.605V29.605ZM234.15 28.8414L236.433 32.1373L239.721 29.8598L237.439 26.5639L234.15 28.8414ZM239.724 32.1331L241.995 28.8372L238.701 26.568L236.43 29.8639L239.724 32.1331ZM241.948 28.9026C241.827 29.0633 241.641 29.2504 241.371 29.3941C241.095 29.5414 240.803 29.605 240.531 29.605V25.605C239.752 25.605 239.126 25.9983 238.748 26.5026L241.948 28.9026ZM240.531 29.605H243.595V25.605H240.531V29.605ZM243.595 29.605C243.377 29.605 242.841 29.5618 242.348 29.1242C241.811 28.6468 241.705 28.0434 241.705 27.7026H245.705C245.705 27.2968 245.58 26.6446 245.006 26.1346C244.477 25.6645 243.885 25.605 243.595 25.605V29.605ZM241.705 27.7083L241.753 44.8836L245.753 44.8722L245.705 27.697L241.705 27.7083ZM241.753 44.8779C241.753 44.7049 241.779 44.2051 242.167 43.7201C242.623 43.1499 243.247 43 243.656 43V47C244.13 47 244.802 46.8298 245.291 46.2189C245.711 45.6932 245.753 45.1323 245.753 44.8779H241.753ZM243.656 43H240.824V47H243.656V43ZM240.824 43C241.233 43 241.856 43.1499 242.312 43.7201C242.7 44.2051 242.726 44.7049 242.726 44.8779H238.726C238.726 45.1323 238.768 45.6932 239.189 46.2189C239.677 46.8298 240.35 47 240.824 47V43ZM242.726 44.8741L242.702 32.1178L238.702 32.1254L238.726 44.8818L242.726 44.8741ZM239.055 30.9867L236.43 34.7953L239.724 37.065L242.349 33.2564L239.055 30.9867ZM239.729 34.8025L237.129 30.9939L233.825 33.2492L236.425 37.0578L239.729 34.8025ZM233.477 32.1178L233.453 44.8741L237.453 44.8818L237.477 32.1254L233.477 32.1178ZM233.453 44.8779C233.453 44.7049 233.478 44.2051 233.866 43.7201C234.323 43.1499 234.946 43 235.355 43V47C235.829 47 236.501 46.8298 236.99 46.2189C237.411 45.6932 237.453 45.1323 237.453 44.8779H233.453Z" fill="black" mask="url(#path-2-outside-1_307_1647)"/>
</svg>
